  0
SECTION
  2
HEADER
  9
$ACADVER
  1
AC1015
  9
$ACADMAINTVER
 70
     6
  9
$DWGCODEPAGE
  3
ANSI_1252
  9
$INSBASE
 10
0.0
 20
0.0
 30
0.0
  9
$EXTMIN
 10
-104.4455461283
 20
-41.0814323689
 30
0.0
  9
$EXTMAX
 10
135.7401011806
 20
129.5620638668
 30
0.0
  9
$LIMMIN
 10
0.0
 20
0.0
  9
$LIMMAX
 10
420.0
 20
297.0
  9
$ORTHOMODE
 70
     0
  9
$REGENMODE
 70
     1
  9
$FILLMODE
 70
     1
  9
$QTEXTMODE
 70
     0
  9
$MIRRTEXT
 70
     1
  9
$LTSCALE
 40
1.0
  9
$ATTMODE
 70
     1
  9
$TEXTSIZE
 40
3.5
  9
$TRACEWID
 40
1.0
  9
$TEXTSTYLE
  7
Standard
  9
$CLAYER
  8
0
  9
$CELTYPE
  6
ByLayer
  9
$CECOLOR
 62
   256
  9
$CELTSCALE
 40
1.0
  9
$DISPSILH
 70
     0
  9
$DIMSCALE
 40
1.0
  9
$DIMASZ
 40
3.302
  9
$DIMEXO
 40
0.0
  9
$DIMDLI
 40
3.75
  9
$DIMRND
 40
0.0
  9
$DIMDLE
 40
0.0
  9
$DIMEXE
 40
1.0
  9
$DIMTP
 40
0.0
  9
$DIMTM
 40
0.0
  9
$DIMTXT
 40
3.5
  9
$DIMCEN
 40
2.5
  9
$DIMTSZ
 40
0.0
  9
$DIMTOL
 70
     0
  9
$DIMLIM
 70
     0
  9
$DIMTIH
 70
     1
  9
$DIMTOH
 70
     1
  9
$DIMSE1
 70
     0
  9
$DIMSE2
 70
     0
  9
$DIMTAD
 70
     1
  9
$DIMZIN
 70
     1
  9
$DIMBLK
  1

  9
$DIMASO
 70
     1
  9
$DIMSHO
 70
     1
  9
$DIMPOST
  1

  9
$DIMAPOST
  1

  9
$DIMALT
 70
     0
  9
$DIMALTD
 70
     3
  9
$DIMALTF
 40
0.0393700787
  9
$DIMLFAC
 40
1.0
  9
$DIMTOFL
 70
     1
  9
$DIMTVP
 40
0.0
  9
$DIMTIX
 70
     0
  9
$DIMSOXD
 70
     0
  9
$DIMSAH
 70
     0
  9
$DIMBLK1
  1

  9
$DIMBLK2
  1

  9
$DIMSTYLE
  2
ISO-25
  9
$DIMCLRD
 70
     0
  9
$DIMCLRE
 70
     0
  9
$DIMCLRT
 70
     0
  9
$DIMTFAC
 40
1.0
  9
$DIMGAP
 40
1.524
  9
$DIMJUST
 70
     0
  9
$DIMSD1
 70
     0
  9
$DIMSD2
 70
     0
  9
$DIMTOLJ
 70
     0
  9
$DIMTZIN
 70
     1
  9
$DIMALTZ
 70
     0
  9
$DIMALTTZ
 70
     0
  9
$DIMUPT
 70
     0
  9
$DIMDEC
 70
     2
  9
$DIMTDEC
 70
     2
  9
$DIMALTU
 70
     2
  9
$DIMALTTD
 70
     3
  9
$DIMTXSTY
  7
Standard
  9
$DIMAUNIT
 70
     0
  9
$DIMADEC
 70
     2
  9
$DIMALTRND
 40
0.0
  9
$DIMAZIN
 70
     0
  9
$DIMDSEP
 70
    44
  9
$DIMATFIT
 70
     3
  9
$DIMFRAC
 70
     0
  9
$DIMLDRBLK
  1

  9
$DIMLUNIT
 70
     2
  9
$DIMLWD
 70
    -2
  9
$DIMLWE
 70
    -2
  9
$DIMTMOVE
 70
     0
  9
$LUNITS
 70
     2
  9
$LUPREC
 70
     2
  9
$SKETCHINC
 40
1.0
  9
$FILLETRAD
 40
0.0
  9
$AUNITS
 70
     0
  9
$AUPREC
 70
     2
  9
$MENU
  1
.
  9
$ELEVATION
 40
0.0
  9
$PELEVATION
 40
0.0
  9
$THICKNESS
 40
0.0
  9
$LIMCHECK
 70
     0
  9
$CHAMFERA
 40
0.0
  9
$CHAMFERB
 40
0.0
  9
$CHAMFERC
 40
0.0
  9
$CHAMFERD
 40
0.0
  9
$SKPOLY
 70
     0
  9
$TDCREATE
 40
2460034.938181783
  9
$TDUCREATE
 40
2460034.854848449
  9
$TDUPDATE
 40
2460034.938258414
  9
$TDUUPDATE
 40
2460034.854925081
  9
$TDINDWG
 40
0.0000000116
  9
$TDUSRTIMER
 40
0.0000000116
  9
$USRTIMER
 70
     1
  9
$ANGBASE
 50
0.0
  9
$ANGDIR
 70
     0
  9
$PDMODE
 70
     0
  9
$PDSIZE
 40
-1.0
  9
$PLINEWID
 40
0.0
  9
$SPLFRAME
 70
     0
  9
$SPLINETYPE
 70
     6
  9
$SPLINESEGS
 70
     8
  9
$HANDSEED
  5
255
  9
$SURFTAB1
 70
     6
  9
$SURFTAB2
 70
     6
  9
$SURFTYPE
 70
     6
  9
$SURFU
 70
     6
  9
$SURFV
 70
     6
  9
$UCSBASE
  2

  9
$UCSNAME
  2

  9
$UCSORG
 10
0.0
 20
0.0
 30
0.0
  9
$UCSXDIR
 10
1.0
 20
0.0
 30
0.0
  9
$UCSYDIR
 10
0.0
 20
1.0
 30
0.0
  9
$UCSORTHOREF
  2

  9
$UCSORTHOVIEW
 70
     0
  9
$UCSORGTOP
 10
0.0
 20
0.0
 30
0.0
  9
$UCSORGBOTTOM
 10
0.0
 20
0.0
 30
0.0
  9
$UCSORGLEFT
 10
0.0
 20
0.0
 30
0.0
  9
$UCSORGRIGHT
 10
0.0
 20
0.0
 30
0.0
  9
$UCSORGFRONT
 10
0.0
 20
0.0
 30
0.0
  9
$UCSORGBACK
 10
0.0
 20
0.0
 30
0.0
  9
$PUCSBASE
  2

  9
$PUCSNAME
  2

  9
$PUCSORG
 10
0.0
 20
0.0
 30
0.0
  9
$PUCSXDIR
 10
1.0
 20
0.0
 30
0.0
  9
$PUCSYDIR
 10
0.0
 20
1.0
 30
0.0
  9
$PUCSORTHOREF
  2

  9
$PUCSORTHOVIEW
 70
     0
  9
$PUCSORGTOP
 10
0.0
 20
0.0
 30
0.0
  9
$PUCSORGBOTTOM
 10
0.0
 20
0.0
 30
0.0
  9
$PUCSORGLEFT
 10
0.0
 20
0.0
 30
0.0
  9
$PUCSORGRIGHT
 10
0.0
 20
0.0
 30
0.0
  9
$PUCSORGFRONT
 10
0.0
 20
0.0
 30
0.0
  9
$PUCSORGBACK
 10
0.0
 20
0.0
 30
0.0
  9
$USERI1
 70
     0
  9
$USERI2
 70
     0
  9
$USERI3
 70
     0
  9
$USERI4
 70
     0
  9
$USERI5
 70
     0
  9
$USERR1
 40
0.0
  9
$USERR2
 40
0.0
  9
$USERR3
 40
0.0
  9
$USERR4
 40
0.0
  9
$USERR5
 40
0.0
  9
$WORLDVIEW
 70
     1
  9
$SHADEDGE
 70
     3
  9
$SHADEDIF
 70
    70
  9
$TILEMODE
 70
     1
  9
$MAXACTVP
 70
    64
  9
$PINSBASE
 10
0.0
 20
0.0
 30
0.0
  9
$PLIMCHECK
 70
     0
  9
$PEXTMIN
 10
1.0000000000E+20
 20
1.0000000000E+20
 30
1.0000000000E+20
  9
$PEXTMAX
 10
-1.0000000000E+20
 20
-1.0000000000E+20
 30
-1.0000000000E+20
  9
$PLIMMIN
 10
0.0
 20
0.0
  9
$PLIMMAX
 10
420.0
 20
297.0
  9
$UNITMODE
 70
     0
  9
$VISRETAIN
 70
     1
  9
$PLINEGEN
 70
     0
  9
$PSLTSCALE
 70
     1
  9
$TREEDEPTH
 70
  3020
  9
$CMLSTYLE
  2
Standard
  9
$CMLJUST
 70
     0
  9
$CMLSCALE
 40
20.0
  9
$PROXYGRAPHICS
 70
     1
  9
$MEASUREMENT
 70
     1
  9
$CELWEIGHT
370
    -1
  9
$ENDCAPS
280
     0
  9
$JOINSTYLE
280
     0
  9
$LWDISPLAY
290
     1
  9
$INSUNITS
 70
     4
  9
$HYPERLINKBASE
  1

  9
$STYLESHEET
  1

  9
$XEDIT
290
     1
  9
$CEPSNTYPE
380
     0
  9
$PSTYLEMODE
290
     1
  9
$FINGERPRINTGUID
  2
{173f8cd5-c7a9-4e03-a99b-30437def21be}
  9
$VERSIONGUID
  2
{FAEB1C32-E019-11D5-929B-00C0DF256EC4}
  9
$EXTNAMES
290
     1
  9
$PSVPSCALE
 40
0.0
  9
$OLESTARTUP
290
     0
  0
ENDSEC
  0
SECTION
  2
CLASSES
  0
CLASS
  1
ACDBDICTIONARYWDFLT
  2
AcDbDictionaryWithDefault
  3
ObjectDBX Classes
 90
        0
280
     0
281
     0
  0
CLASS
  1
VISUALSTYLE
  2
AcDbVisualStyle
  3
ObjectDBX Classes
 90
     4095
280
     0
281
     0
  0
CLASS
  1
MATERIAL
  2
AcDbMaterial
  3
ObjectDBX Classes
 90
     1153
280
     0
281
     0
  0
CLASS
  1
SCALE
  2
AcDbScale
  3
ObjectDBX Classes
 90
     1153
280
     0
281
     0
  0
CLASS
  1
TABLESTYLE
  2
AcDbTableStyle
  3
ObjectDBX Classes
 90
     4095
280
     0
281
     0
  0
CLASS
  1
MLEADERSTYLE
  2
AcDbMLeaderStyle
  3
ACDB_MLEADERSTYLE_CLASS
 90
     4095
280
     0
281
     0
  0
CLASS
  1
SUN
  2
AcDbSun
  3
SCENEOE
 90
     1153
280
     0
281
     0
  0
CLASS
  1
ACDBPLACEHOLDER
  2
AcDbPlaceHolder
  3
ObjectDBX Classes
 90
        0
280
     0
281
     0
  0
CLASS
  1
LAYOUT
  2
AcDbLayout
  3
ObjectDBX Classes
 90
        0
280
     0
281
     0
  0
ENDSEC
  0
SECTION
  2
TABLES
  0
TABLE
  2
VPORT
  5
8
330
0
100
AcDbSymbolTable
 70
     1
  0
VPORT
  5
29
330
8
100
AcDbSymbolTableRecord
100
AcDbViewportTableRecord
  2
*Active
 70
     0
 10
0.0
 20
0.0
 11
1.0
 21
1.0
 12
15.6472775262
 22
44.240315749
 13
0.0
 23
0.0
 14
10.0
 24
10.0
 15
10.0
 25
10.0
 16
0.0
 26
0.0
 36
1.0
 17
0.0
 27
0.0
 37
0.0
 40
174.0563661604
 41
1.4075288693
 42
50.0
 43
0.0
 44
0.0
 50
0.0
 51
0.0
 71
     0
 72
   100
 73
     1
 74
     3
 75
     0
 76
     0
 77
     0
 78
     0
281
     0
 65
     1
110
0.0
120
0.0
130
0.0
111
1.0
121
0.0
131
0.0
112
0.0
122
1.0
132
0.0
 79
     0
146
0.0
  0
ENDTAB
  0
TABLE
  2
LTYPE
  5
5
330
0
100
AcDbSymbolTable
 70
     6
  0
LTYPE
  5
14
330
5
100
AcDbSymbolTableRecord
100
AcDbLinetypeTableRecord
  2
ByBlock
 70
     0
  3

 72
    65
 73
     0
 40
0.0
  0
LTYPE
  5
15
330
5
100
AcDbSymbolTableRecord
100
AcDbLinetypeTableRecord
  2
ByLayer
 70
     0
  3

 72
    65
 73
     0
 40
0.0
  0
LTYPE
  5
16
330
5
100
AcDbSymbolTableRecord
100
AcDbLinetypeTableRecord
  2
Continuous
 70
     0
  3
Solid line
 72
    65
 73
     0
 40
0.0
  0
LTYPE
  5
5E
330
5
100
AcDbSymbolTableRecord
100
AcDbLinetypeTableRecord
  2
HIDDEN
 70
     0
  3
Hidden __ __ __ __ __ __ __ __ __ __ __ __ __ __
 72
    65
 73
     2
 40
1.905
 49
1.27
 74
     0
 49
-0.635
 74
     0
  0
LTYPE
  5
5F
330
5
100
AcDbSymbolTableRecord
100
AcDbLinetypeTableRecord
  2
PHANTOM
 70
     0
  3
Phantom ______  __  __  ______  __  __  ______
 72
    65
 73
     6
 40
12.7
 49
6.35
 74
     0
 49
-1.27
 74
     0
 49
1.27
 74
     0
 49
-1.27
 74
     0
 49
1.27
 74
     0
 49
-1.27
 74
     0
  0
LTYPE
  5
60
330
5
100
AcDbSymbolTableRecord
100
AcDbLinetypeTableRecord
  2
CENTER
 70
     0
  3
Center ____ _ ____ _ ____ _ ____ _ ____ _ ____
 72
    65
 73
     4
 40
10.16
 49
6.35
 74
     0
 49
-1.27
 74
     0
 49
1.27
 74
     0
 49
-1.27
 74
     0
  0
LTYPE
  5
61
330
5
100
AcDbSymbolTableRecord
100
AcDbLinetypeTableRecord
  2
CENTERX2
 70
     0
  3
Center (2x) ________  __  ________  __  _____
 72
    65
 73
     4
 40
20.32
 49
12.7
 74
     0
 49
-2.54
 74
     0
 49
2.54
 74
     0
 49
-2.54
 74
     0
  0
LTYPE
  5
62
330
5
100
AcDbSymbolTableRecord
100
AcDbLinetypeTableRecord
  2
DOT2
 70
     0
  3
Dot (.5x) ........................................
 72
    65
 73
     2
 40
0.635
 49
0.0
 74
     0
 49
-0.635
 74
     0
  0
ENDTAB
  0
TABLE
  2
LAYER
  5
2
330
0
100
AcDbSymbolTable
 70
     1
  0
LAYER
  5
10
330
2
100
AcDbSymbolTableRecord
100
AcDbLayerTableRecord
  2
0
 70
     0
 62
     7
  6
Continuous
370
    -3
390
F
  0
ENDTAB
  0
TABLE
  2
STYLE
  5
3
330
0
100
AcDbSymbolTable
 70
     2
  0
STYLE
  5
11
330
3
100
AcDbSymbolTableRecord
100
AcDbTextStyleTableRecord
  2
Standard
 70
     0
 40
0.0
 41
1.0
 50
0.0
 71
     0
 42
3.5
  3
txt
  4

  0
STYLE
  5
252
330
3
100
AcDbSymbolTableRecord
100
AcDbTextStyleTableRecord
  2
SLDTEXTSTYLE0
 70
     0
 40
0.0
 41
0.7
 50
0.0
 71
     0
 42
3.5
  3
TXT
  4
bigfont
  0
ENDTAB
  0
TABLE
  2
VIEW
  5
6
330
0
100
AcDbSymbolTable
 70
     0
  0
ENDTAB
  0
TABLE
  2
UCS
  5
7
330
0
100
AcDbSymbolTable
 70
     0
  0
ENDTAB
  0
TABLE
  2
APPID
  5
9
330
0
100
AcDbSymbolTable
 70
     1
  0
APPID
  5
12
330
9
100
AcDbSymbolTableRecord
100
AcDbRegAppTableRecord
  2
ACAD
 70
     0
  0
ENDTAB
  0
TABLE
  2
DIMSTYLE
  5
A
330
0
100
AcDbSymbolTable
 70
     1
100
AcDbDimStyleTable
  0
DIMSTYLE
105
27
330
A
100
AcDbSymbolTableRecord
100
AcDbDimStyleTableRecord
  2
ISO-25
 70
     0
 41
2.5
 42
0.625
 43
3.75
 44
1.25
 73
     0
 74
     0
 77
     1
 78
     8
140
2.5
141
2.5
143
0.0393700787
147
0.625
171
     3
172
     1
178
     0
271
     2
272
     2
274
     3
278
    44
283
     0
284
     8
340
11
  0
ENDTAB
  0
TABLE
  2
BLOCK_RECORD
  5
1
330
0
100
AcDbSymbolTable
 70
     1
  0
BLOCK_RECORD
  5
1F
330
1
100
AcDbSymbolTableRecord
100
AcDbBlockTableRecord
  2
*Model_Space
340
22
  0
BLOCK_RECORD
  5
1B
330
1
100
AcDbSymbolTableRecord
100
AcDbBlockTableRecord
  2
*Paper_Space
340
1E
  0
BLOCK_RECORD
  5
23
330
1
100
AcDbSymbolTableRecord
100
AcDbBlockTableRecord
  2
*Paper_Space0
340
26
  0
ENDTAB
  0
ENDSEC
  0
SECTION
  2
BLOCKS
  0
BLOCK
  5
20
330
1F
100
AcDbEntity
  8
0
100
AcDbBlockBegin
  2
*Model_Space
 70
     0
 10
0.0
 20
0.0
 30
0.0
  3
*Model_Space
  1

  0
ENDBLK
  5
21
330
1F
100
AcDbEntity
  8
0
100
AcDbBlockEnd
  0
BLOCK
  5
1C
330
1B
100
AcDbEntity
 67
     1
  8
0
100
AcDbBlockBegin
  2
*Paper_Space
 70
     0
 10
0.0
 20
0.0
 30
0.0
  3
*Paper_Space
  1

  0
ENDBLK
  5
1D
330
1B
100
AcDbEntity
 67
     1
  8
0
100
AcDbBlockEnd
  0
BLOCK
  5
24
330
23
100
AcDbEntity
  8
0
100
AcDbBlockBegin
  2
*Paper_Space0
 70
     0
 10
0.0
 20
0.0
 30
0.0
  3
*Paper_Space0
  1

  0
ENDBLK
  5
25
330
23
100
AcDbEntity
  8
0
100
AcDbBlockEnd
  0
ENDSEC
  0
SECTION
  2
ENTITIES
  0
LWPOLYLINE
  5
A3
330
1F
100
AcDbEntity
  8
0
  6
Continuous
 62
     7
370
    25
100
AcDbPolyline
 90
       78
 70
   128
 43
0.0
 10
102.1177384214
 20
13.2816615534
 10
103.7925355971
 20
12.4652694483
 10
106.5773925456
 20
11.0697529534
 10
109.0664622092
 20
9.7696902833
 10
111.2517713473
 20
8.5692459307
 10
113.1263197559
 20
7.4722652806
 10
114.6841026915
 20
6.4822622929
 10
115.9201301055
 20
5.6024082455
 10
116.8304426296
 20
4.8355215763
 10
117.4121242583
 20
4.1840588544
 10
117.6633116899
 20
3.6501069114
 10
117.5832002955
 20
3.2353761562
 10
117.1720466959
 20
2.9411950965
 10
116.4311679401
 20
2.768506083
 10
115.3629372862
 20
2.7178622905
 10
113.9707765988
 20
2.7894259466
 10
112.2591453885
 20
2.9829678111
 10
110.233526526
 20
3.2978679111
 10
107.9004086792
 20
3.7331175267
 10
105.2672655279
 20
4.2873224222
 10
102.3425318234
 20
4.9587073122
 10
99.1355763697
 20
5.7451215484
 10
95.6566720117
 20
6.6440460091
 10
91.916962729
 20
7.652601168
 10
87.9284279378
 20
8.7675563192
 10
83.7038441175
 20
9.9853399249
 10
79.2567438837
 20
11.3020510573
 10
74.6013726391
 20
12.7134718936
 10
69.7526429413
 20
14.2150812273
 10
64.7260867333
 20
15.8020689511
 10
59.53780559
 20
17.4693514648
 10
54.2044191401
 20
19.21158796
 10
48.7430118282
 20
21.0231975278
 10
43.1710781884
 20
22.8983770367
 10
37.506466804
 20
24.8311197214
 10
31.767323133
 20
26.8152344244
 10
25.9720313828
 20
28.8443654281
 10
20.13915562
 20
30.9120128142
 10
14.2873803041
 20
33.0115532848
 10
8.4354504356
 20
35.1362613788
 10
2.6021115101
 20
37.2793310157
 10
-3.1939505292
 20
39.4338972972
 10
-8.9341691482
 20
41.593058498
 10
-14.6001566962
 20
43.749898174
 10
-20.1737633069
 20
45.8975073173
 10
-25.637135038
 20
48.0290064884
 10
-30.9727710627
 20
50.1375678529
 10
-36.1635797304
 20
52.2164370531
 10
-41.192933316
 20
54.2589548442
 10
-46.0447212837
 20
56.2585784259
 10
-50.7034018939
 20
58.2089024011
 10
-55.1540519882
 20
60.1036792941
 10
-59.3824147926
 20
61.9368395632
 10
-63.3749455862
 20
63.7025110435
 10
-67.1188550894
 20
65.395037757
 10
-70.6021504311
 20
67.0089980303
 10
-73.8136735665
 20
68.539221862
 10
-76.7431370185
 20
69.980807484
 10
-79.3811568327
 20
71.3291370629
 10
-81.7192826363
 20
72.5798914925
 10
-83.7500247074
 20
73.7290642294
 10
-85.466877967
 20
74.7729741267
 10
-86.8643428165
 20
75.7082772265
 10
-87.9379427547
 20
76.5319774709
 10
-88.6842387173
 20
77.2414362997
 10
-89.1008400934
 20
77.8343811023
 10
-89.1864123831
 20
78.3089124979
 10
-88.9406814726
 20
78.6635104193
 10
-88.3644345121
 20
78.8970389824
 10
-87.4595173944
 20
79.0087501249
 10
-86.2288288418
 20
78.9982860023
 10
-84.6763111206
 20
78.8656801343
 10
-82.8069374133
 20
78.6113572976
 10
-80.6266958875
 20
78.2361321647
 10
-78.1425705139
 20
77.7412066951
 10
-75.362518695
 20
77.128166284
 10
-72.295445775
 20
76.3989746849
 10
-69.8067642198
 20
75.7757428908
  0
LWPOLYLINE
  5
A7
330
1F
100
AcDbEntity
  8
0
  6
Continuous
 62
     7
370
    25
100
AcDbPolyline
 90
       58
 70
   128
 43
0.0
 10
116.6229316641
 20
0.5382263857
 10
116.5623280945
 20
0.4215882486
 10
116.1511744949
 20
0.127407189
 10
115.4102957392
 20
-0.0452818246
 10
114.3420650852
 20
-0.095925617
 10
112.9499043979
 20
-0.024361961
 10
111.2382731875
 20
0.1691799035
 10
109.212654325
 20
0.4840800036
 10
106.8795364782
 20
0.9193296192
 10
104.2463933269
 20
1.4735345147
 10
101.3216596224
 20
2.1449194046
 10
98.1147041687
 20
2.9313336409
 10
94.6357998107
 20
3.8302581015
 10
90.896090528
 20
4.8388132605
 10
86.9075557368
 20
5.9537684116
 10
82.6829719165
 20
7.1715520174
 10
78.2358716827
 20
8.4882631497
 10
73.5805004381
 20
9.899683986
 10
68.7317707403
 20
11.4012933198
 10
63.7052145323
 20
12.9882810435
 10
58.516933389
 20
14.6555635573
 10
53.1835469391
 20
16.3978000524
 10
47.7221396272
 20
18.2094096203
 10
42.1502059874
 20
20.0845891292
 10
36.485594603
 20
22.0173318139
 10
30.7464509321
 20
24.0014465168
 10
24.9511591818
 20
26.0305775206
 10
19.118283419
 20
28.0982249067
 10
13.2665081031
 20
30.1977653773
 10
7.4145782346
 20
32.3224734713
 10
1.5812393091
 20
34.4655431081
 10
-4.2148227302
 20
36.6201093896
 10
-9.9550413492
 20
38.7792705905
 10
-15.6210288972
 20
40.9361102664
 10
-21.1946355079
 20
43.0837194097
 10
-26.658007239
 20
45.2152185809
 10
-31.9936432637
 20
47.3237799454
 10
-37.1844519314
 20
49.4026491456
 10
-42.213805517
 20
51.4451669367
 10
-47.0655934846
 20
53.4447905184
 10
-51.7242740949
 20
55.3951144936
 10
-56.1749241892
 20
57.2898913865
 10
-60.4032869936
 20
59.1230516557
 10
-64.3958177872
 20
60.888723136
 10
-68.1397272904
 20
62.5812498495
 10
-71.6230226321
 20
64.1952101228
 10
-74.8345457674
 20
65.7254339545
 10
-77.7640092195
 20
67.1670195765
 10
-80.4020290337
 20
68.5153491554
 10
-82.7401548373
 20
69.766103585
 10
-84.7708969084
 20
70.9152763218
 10
-86.487750168
 20
71.9591862192
 10
-87.8852150175
 20
72.894489319
 10
-88.9588149557
 20
73.7181895634
 10
-89.7051109183
 20
74.4276483921
 10
-90.1217122944
 20
75.0205931948
 10
-90.2072845841
 20
75.4951245904
 10
-90.186411262
 20
75.5708571439
  0
LWPOLYLINE
  5
A8
330
1F
100
AcDbEntity
  8
0
  6
Continuous
 62
     7
370
    25
100
AcDbPolyline
 90
       12
 70
   128
 43
0.0
 10
-1.4898921276
 20
52.6093480841
 10
-2.1723268539
 20
52.855046604
 10
-3.1586431696
 20
53.2312170205
 10
-4.0052265021
 20
53.5801292167
 10
-4.620336411
 20
53.8639731423
 10
-4.9373161935
 20
54.0519899035
 10
-4.9218161715
 20
54.1238049669
 10
-4.575516013
 20
54.071636056
 10
-3.9359427136
 20
53.901136482
 10
-3.0724039643
 20
53.630782519
 10
-2.0784775877
 20
53.2898712141
 10
-1.5345213523
 20
53.0926842605
  0
LWPOLYLINE
  5
A9
330
1F
100
AcDbEntity
  8
0
  6
Continuous
 62
     7
370
    25
100
AcDbPolyline
 90
       14
 70
   128
 43
0.0
 10
-65.9909663423
 20
68.7007230913
 10
-65.8926394604
 20
68.6454590826
 10
-65.7398152572
 20
68.5137467862
 10
-65.9232167041
 20
68.5037878835
 10
-66.4229694085
 20
68.616661576
 10
-67.1849174105
 20
68.8401362477
 10
-68.1264918212
 20
69.1499949505
 10
-69.1456584432
 20
69.5126596858
 10
-70.131974759
 20
69.8888301024
 10
-70.9785580914
 20
70.2377422986
 10
-71.5936680003
 20
70.5215862241
 10
-71.9106477828
 20
70.7096029853
 10
-71.8951477608
 20
70.7814180487
 10
-71.6312211494
 20
70.7470675665
  0
LWPOLYLINE
  5
AA
330
1F
100
AcDbEntity
  8
0
  6
Continuous
 62
     7
370
    25
100
AcDbPolyline
 90
        8
 70
   128
 43
0.0
 10
95.4786818096
 20
12.5750498432
 10
95.1847365208
 20
12.6998206684
 10
94.5696266119
 20
12.983664594
 10
94.2526468294
 20
13.1716813551
 10
94.2681468514
 20
13.2434964185
 10
94.6144470098
 20
13.1913275077
 10
95.2540203092
 20
13.0208279336
 10
95.6022133603
 20
12.9155347574
  0
LWPOLYLINE
  5
AB
330
1F
100
AcDbEntity
  8
0
  6
Continuous
 62
     7
370
    25
100
AcDbPolyline
 90
       10
 70
   128
 43
0.0
 10
31.2007386057
 20
28.6750857789
 10
32.0838823394
 20
28.3250958629
 10
32.824834583
 20
28.0043431532
 10
33.2973235625
 20
27.7651505343
 10
33.4501477657
 20
27.6334382379
 10
33.2667463188
 20
27.6234793352
 10
32.7669936143
 20
27.7363530277
 10
32.0050456123
 20
27.9598276994
 10
31.0634712016
 20
28.2696864022
 10
31.0547420383
 20
28.2726814668
  0
LWPOLYLINE
  5
AD
330
1F
100
AcDbEntity
  8
0
  6
Continuous
 62
     7
370
    25
100
AcDbPolyline
 90
       77
 70
   128
 43
0.0
 10
122.1648129132
 20
60.5308194487
 10
123.4270539204
 20
59.9024592394
 10
126.0516241478
 20
58.5584716345
 10
128.3759390446
 20
57.3122480948
 10
130.3925531294
 20
56.1677806499
 10
132.0950065794
 20
55.1287353741
 10
133.4778459229
 20
54.1984406428
 10
134.5366415086
 20
53.3798764702
 10
135.2680016951
 20
52.6756649644
 10
135.6695837152
 20
52.088061927
 10
135.7401011806
 20
51.6189496276
 10
135.4793282026
 20
51.2698307746
 10
134.8881001157
 20
51.0418237007
 10
133.9683108017
 20
50.9356587813
 10
132.722906623
 20
50.9516760948
 10
131.1558769847
 20
51.0898243328
 10
129.2722415552
 20
51.3496609649
 10
127.0780341865
 20
51.7303536559
 10
124.5802835864
 20
52.2306829326
 10
121.7869908031
 20
52.8490460892
 10
118.7071035955
 20
53.5834623223
 10
115.3504877708
 20
54.4315790752
 10
111.7278955814
 20
55.3906795742
 10
107.8509312823
 20
56.4576915314
 10
103.7320139588
 20
57.6291969858
 10
99.384337745
 20
58.9014432521
 10
94.8218295584
 20
60.2703549421
 10
90.0591044883
 20
61.731547019
 10
85.1114189789
 20
63.2803388439
 10
79.9946219585
 20
64.9117691698
 10
74.7251040705
 20
66.6206120335
 10
69.3197451695
 20
68.401393496
 10
63.7958602494
 20
70.2484091777
 10
58.171143979
 20
72.1557425302
 10
52.4636140203
 20
74.1172837901
 10
46.6915533124
 20
76.1267495491
 10
40.8734515058
 20
78.1777028827
 10
35.0279457347
 20
80.2635739691
 10
29.1737609164
 20
82.3776811343
 10
23.3296497696
 20
84.5132522557
 10
17.5143327443
 20
86.6634464553
 10
11.746438054
 20
88.8213760126
 10
6.0444420044
 20
90.9801284289
 10
0.4266098077
 20
93.1327885693
 10
-5.0890629258
 20
95.2724608144
 10
-10.4849078335
 20
97.3922911489
 10
-15.7436403976
 20
99.4854891173
 10
-20.8484153122
 20
101.5453495753
 10
-25.7828804442
 20
103.565274169
 10
-30.5312292144
 20
105.5387924708
 10
-35.0782512299
 20
107.4595827068
 10
-39.4093810086
 20
109.3214920066
 10
-43.510744636
 20
111.1185561136
 10
-47.369204208
 20
112.8450184896
 10
-50.9723999152
 20
114.4953487551
 10
-54.3087896356
 20
116.0642604047
 10
-57.3676859071
 20
117.5467277415
 10
-60.1392901628
 20
118.9380019757
 10
-62.6147241185
 20
120.2336264363
 10
-64.7860582132
 20
121.4294508478
 10
-66.646337009
 20
122.521644624
 10
-68.1896014722
 20
123.5067091389
 10
-69.4109080614
 20
124.3814889339
 10
-70.3063445634
 20
125.1431818257
 10
-70.8730426253
 20
125.7893478822
 10
-71.1091869421
 20
126.3179172388
 10
-71.0140210726
 20
126.7271967286
 10
-70.5878498616
 20
127.0158753058
 10
-69.832038464
 20
127.1830282459
 10
-68.7490079717
 20
127.2281201078
 10
-67.3422276577
 20
127.1510064486
 10
-65.6162038635
 20
126.9519342866
 10
-63.5764655637
 20
126.6315413099
 10
-61.2295466551
 20
126.1908538339
 10
-58.5829650263
 20
125.6312835133
 10
-55.6451984762
 20
124.9546228207
 10
-54.9401069533
 20
124.7852644668
  0
LWPOLYLINE
  5
B0
330
1F
100
AcDbEntity
  8
0
  6
Continuous
 62
     7
370
    25
100
AcDbPolyline
 90
       14
 70
   128
 43
0.0
 10
21.6341448969
 20
99.3591766969
 10
21.7607905872
 20
99.2867541745
 10
21.8823637907
 20
99.1660014194
 10
21.6680290926
 20
99.1676738128
 10
21.141012983
 20
99.2915901248
 10
20.3584258351
 20
99.5243221003
 10
19.4050731093
 20
99.8406496186
 10
18.3842653663
 20
100.2062936848
 10
17.4066229645
 20
100.5816310906
 10
16.5780886279
 20
100.9259882042
 10
15.9884469078
 20
101.2020485892
 10
15.7015946338
 20
101.3798968192
 10
15.7486167009
 20
101.440260279
 10
15.9938900898
 20
101.4055211721
  0
LWPOLYLINE
  5
B1
330
1F
100
AcDbEntity
  8
0
  6
Continuous
 62
     7
370
    25
100
AcDbPolyline
 90
       14
 70
   128
 43
0.0
 10
-48.3692220588
 20
117.2708094611
 10
-48.2425763684
 20
117.1983869387
 10
-48.1210031649
 20
117.0776341836
 10
-48.3353378631
 20
117.079306577
 10
-48.8623539726
 20
117.203222889
 10
-49.6449411206
 20
117.4359548645
 10
-50.5982938464
 20
117.7522823828
 10
-51.6191015894
 20
118.117926449
 10
-52.5967439911
 20
118.4932638548
 10
-53.4252783278
 20
118.8376209685
 10
-54.0149200479
 20
119.1136813534
 10
-54.3017723219
 20
119.2915295835
 10
-54.2547502548
 20
119.3518930432
 10
-54.0094768659
 20
119.3171539363
  0
LWPOLYLINE
  5
B2
330
1F
100
AcDbEntity
  8
0
  6
Continuous
 62
     7
370
    25
100
AcDbPolyline
 90
       14
 70
   128
 43
0.0
 10
118.7093967561
 20
59.0125645428
 10
118.8360424464
 20
58.9401420205
 10
118.9576156499
 20
58.8193892654
 10
118.7432809518
 20
58.8210616587
 10
118.2162648422
 20
58.9449779707
 10
117.4336776943
 20
59.1777099463
 10
116.4803249685
 20
59.4940374646
 10
115.4595172255
 20
59.8596815307
 10
114.4818748237
 20
60.2350189365
 10
113.6533404871
 20
60.5793760502
 10
113.063698767
 20
60.8554364352
 10
112.776846493
 20
61.0332846652
 10
112.82386856
 20
61.093648125
 10
113.069141949
 20
61.058909018
  0
LWPOLYLINE
  5
B3
330
1F
100
AcDbEntity
  8
0
  6
Continuous
 62
     7
370
    25
100
AcDbPolyline
 90
       14
 70
   128
 43
0.0
 10
48.7060298004
 20
76.924197307
 10
48.8326754907
 20
76.8517747847
 10
48.9542486942
 20
76.7310220296
 10
48.7399139961
 20
76.7326944229
 10
48.2128978865
 20
76.8566107349
 10
47.4303107386
 20
77.0893427105
 10
46.4769580128
 20
77.4056702288
 10
45.4561502698
 20
77.7713142949
 10
44.478507868
 20
78.1466517008
 10
43.6499735314
 20
78.4910088144
 10
43.0603318113
 20
78.7670691994
 10
42.7734795373
 20
78.9449174294
 10
42.8205016043
 20
79.0052808892
 10
43.0657749933
 20
78.9705417823
  0
LWPOLYLINE
  5
B4
330
1F
100
AcDbEntity
  8
0
  6
Continuous
 62
     7
370
    25
100
AcDbPolyline
 90
       57
 70
   128
 43
0.0
 10
134.7023380489
 20
48.7481511115
 10
134.4584560016
 20
48.456042867
 10
133.8672279147
 20
48.2280357931
 10
132.9474386007
 20
48.1218708738
 10
131.702034422
 20
48.1378881873
 10
130.1350047837
 20
48.2760364253
 10
128.2513693542
 20
48.5358730573
 10
126.0571619855
 20
48.9165657484
 10
123.5594113854
 20
49.416895025
 10
120.7661186022
 20
50.0352581817
 10
117.6862313945
 20
50.7696744147
 10
114.3296155698
 20
51.6177911676
 10
110.7070233804
 20
52.5768916667
 10
106.8300590813
 20
53.6439036239
 10
102.7111417578
 20
54.8154090782
 10
98.363465544
 20
56.0876553446
 10
93.8009573574
 20
57.4565670346
 10
89.0382322873
 20
58.9177591115
 10
84.0905467779
 20
60.4665509364
 10
78.9737497575
 20
62.0979812623
 10
73.7042318696
 20
63.8068241259
 10
68.2988729685
 20
65.5876055885
 10
62.7749880484
 20
67.4346212701
 10
57.150271778
 20
69.3419546227
 10
51.4427418193
 20
71.3034958825
 10
45.6706811114
 20
73.3129616416
 10
39.8525793048
 20
75.3639149752
 10
34.0070735338
 20
77.4497860616
 10
28.1528887154
 20
79.5638932268
 10
22.3087775686
 20
81.6994643482
 10
16.4934605433
 20
83.8496585477
 10
10.725565853
 20
86.0075881051
 10
5.0235698034
 20
88.1663405214
 10
-0.5942623933
 20
90.3190006617
 10
-6.1099351268
 20
92.4586729068
 10
-11.5057800345
 20
94.5785032414
 10
-16.7645125986
 20
96.6717012097
 10
-21.8692875131
 20
98.7315616678
 10
-26.8037526452
 20
100.7514862614
 10
-31.5521014153
 20
102.7250045633
 10
-36.0991234309
 20
104.6457947992
 10
-40.4302532096
 20
106.5077040991
 10
-44.531616837
 20
108.3047682061
 10
-48.390076409
 20
110.0312305821
 10
-51.9932721162
 20
111.6815608476
 10
-55.3296618366
 20
113.2504724972
 10
-58.3885581081
 20
114.732939834
 10
-61.1601623637
 20
116.1242140681
 10
-63.6355963195
 20
117.4198385288
 10
-65.8069304141
 20
118.6156629403
 10
-67.66720921
 20
119.7078567164
 10
-69.2104736732
 20
120.6929212313
 10
-70.4317802624
 20
121.5677010264
 10
-71.3272167644
 20
122.3293939182
 10
-71.8939148263
 20
122.9755599747
 10
-72.1300591431
 20
123.5041293313
 10
-72.1070048772
 20
123.7807818697
  0
SPLINE
  5
B6
330
1F
100
AcDbEntity
  8
0
  6
Continuous
 62
     7
370
    25
100
AcDbSpline
210
0.0
220
0.0
230
1.0
 70
     8
 71
     3
 72
     9
 73
     5
 74
     0
 42
0.00000001
 43
0.00000001
 40
0.0
 40
0.0
 40
0.0
 40
0.0
 40
0.070200576703425
 40
1.0
 40
1.0
 40
1.0
 40
1.0
 10
50.82372219688859
 20
79.53887373378875
 30
0.0
 10
50.86199542567845
 20
79.5294606282064
 30
0.0
 10
51.40719363610866
 20
79.39537190665466
 30
0.0
 10
52.01689094295978
 20
79.47187476105105
 30
0.0
 10
52.58378714725541
 20
79.54300707094937
 30
0.0
  0
SPLINE
  5
B9
330
1F
100
AcDbEntity
  8
0
  6
Continuous
 62
     7
370
    25
100
AcDbSpline
210
0.0
220
0.0
230
1.0
 70
     8
 71
     3
 72
     9
 73
     5
 74
     0
 42
0.00000001
 43
0.00000001
 40
0.0
 40
0.0
 40
0.0
 40
0.0
 40
0.070200576703425
 40
0.9999999999999999
 40
0.9999999999999999
 40
0.9999999999999999
 40
0.9999999999999999
 10
52.52517586520018
 20
84.22852024633862
 30
0.0
 10
52.48690263641029
 20
84.23793335192097
 30
0.0
 10
51.94170442598013
 20
84.37202207347265
 30
0.0
 10
51.33200711912901
 20
84.29551921907628
 30
0.0
 10
50.76511091483336
 20
84.22438690917801
 30
0.0
  0
LWPOLYLINE
  5
BD
330
1F
100
AcDbEntity
  8
0
  6
Continuous
 62
     7
370
    25
100
AcDbPolyline
 90
        9
 70
   128
 43
0.0
 10
44.4313901239
 20
87.2181513058
 10
44.2218418851
 20
87.3376131723
 10
44.0895563705
 20
87.4308837463
 10
44.0367970218
 20
87.4963671423
 10
44.064466566
 20
87.5329429215
 10
44.1720915697
 20
87.5399852619
 10
44.3578305391
 20
87.5173736673
 10
44.6185054291
 20
87.4654950283
 10
44.9496560199
 20
87.3852370027
  0
LWPOLYLINE
  5
C0
330
1F
100
AcDbEntity
  8
0
  6
Continuous
 62
     7
370
    25
100
AcDbPolyline
 90
        9
 70
   128
 43
0.0
 10
53.0434417612
 20
84.3956059433
 10
53.2529899999
 20
84.2761440768
 10
53.3852755146
 20
84.1828735028
 10
53.4380348633
 20
84.1173901067
 10
53.4103653191
 20
84.0808143276
 10
53.3027403154
 20
84.0737719871
 10
53.117001346
 20
84.0963835817
 10
52.856326456
 20
84.1482622208
 10
52.5251758652
 20
84.2285202463
  0
SPLINE
  5
C2
330
1F
100
AcDbEntity
  8
0
  6
Continuous
 62
     7
370
    25
100
AcDbSpline
210
0.0
220
0.0
230
1.0
 70
     8
 71
     3
 72
     9
 73
     5
 74
     0
 42
0.00000001
 43
0.00000001
 40
0.0
 40
0.0
 40
0.0
 40
0.0
 40
0.2195232506482806
 40
1.0
 40
1.0
 40
1.0
 40
1.0
 10
50.76511091483336
 20
84.22438690917801
 30
0.0
 10
50.59188374247007
 20
84.34980908147898
 30
0.0
 10
49.80277747763611
 20
84.92114798034534
 30
0.0
 10
48.91333737026032
 20
85.32477299118584
 30
0.0
 10
48.21915004651262
 20
85.63979292760371
 30
0.0
  0
SPLINE
  5
C3
330
1F
100
AcDbEntity
  8
0
  6
Continuous
 62
     7
370
    25
100
AcDbSpline
210
0.0
220
0.0
230
1.0
 70
     8
 71
     3
 72
     9
 73
     5
 74
     0
 42
0.00000001
 43
0.00000001
 40
0.0
 40
0.0
 40
0.0
 40
0.0
 40
0.7804767493517184
 40
1.0
 40
1.0
 40
1.0
 40
1.0
 10
46.51769637820102
 20
80.95014641505384
 30
0.0
 10
47.24938359614912
 20
80.73848588908191
 30
0.0
 10
48.18687112355571
 20
80.46729199874794
 30
0.0
 10
49.1550540151847
 20
80.38953461430617
 30
0.0
 10
49.36759267077714
 20
80.3724650605116
 30
0.0
  0
SPLINE
  5
C4
330
1F
100
AcDbEntity
  8
0
  6
Continuous
 62
     7
370
    25
100
AcDbSpline
210
0.0
220
0.0
230
1.0
 70
     8
 71
     3
 72
     9
 73
     5
 74
     0
 42
0.00000001
 43
0.00000001
 40
0.0
 40
0.0
 40
0.0
 40
0.0
 40
0.7614488316260314
 40
1.0
 40
1.0
 40
1.0
 40
1.0
 10
43.97173550988028
 20
82.36555243347951
 30
0.0
 10
44.5874996160221
 20
81.94523327619986
 30
0.0
 10
45.39617392290479
 20
81.39323406125318
 30
0.0
 10
46.30168552705484
 20
81.03548731851582
 30
0.0
 10
46.51769637820102
 20
80.95014641505384
 30
0.0
  0
SPLINE
  5
C6
330
1F
100
AcDbEntity
  8
0
  6
Continuous
 62
     7
370
    25
100
AcDbSpline
210
0.0
220
0.0
230
1.0
 70
     8
 71
     3
 72
     9
 73
     5
 74
     0
 42
0.00000001
 43
0.00000001
 40
0.0
 40
0.0
 40
0.0
 40
0.0
 40
0.2385511683739687
 40
1.0
 40
1.0
 40
1.0
 40
1.0
 10
48.21915004651262
 20
85.63979292760371
 30
0.0
 10
47.99958651254179
 20
85.71534171804547
 30
0.0
 10
47.0791821587613
 20
86.0320401897265
 30
0.0
 10
46.10843105085297
 20
86.13731380828983
 30
0.0
 10
45.36925375393652
 20
86.21747428214594
 30
0.0
  0
SPLINE
  5
C9
330
1F
100
AcDbEntity
  8
0
  6
Continuous
 62
     7
370
    25
100
AcDbSpline
210
0.0
220
0.0
230
1.0
 70
     8
 71
     3
 72
     9
 73
     5
 74
     0
 42
0.00000001
 43
0.00000001
 40
0.0
 40
0.0
 40
0.0
 40
0.0
 40
0.070200576703424
 40
1.0
 40
1.0
 40
1.0
 40
1.0
 10
42.72993645554329
 20
82.52850479324064
 30
0.0
 10
42.75592371605011
 20
82.51513076800553
 30
0.0
 10
43.12610957102675
 20
82.32461915309955
 30
0.0
 10
43.56430326548283
 20
82.34583031104984
 30
0.0
 10
43.97173550988028
 20
82.36555243347951
 30
0.0
  0
SPLINE
  5
CC
330
1F
100
AcDbEntity
  8
0
  6
Continuous
 62
     7
370
    25
100
AcDbSpline
210
0.0
220
0.0
230
1.0
 70
     8
 71
     3
 72
     9
 73
     5
 74
     0
 42
0.00000001
 43
0.00000001
 40
0.0
 40
0.0
 40
0.0
 40
0.0
 40
0.0702005767034261
 40
1.0
 40
1.0
 40
1.0
 40
1.0
 10
44.43139012385488
 20
87.2181513057905
 30
0.0
 10
44.40540286334808
 20
87.2315253310256
 30
0.0
 10
44.03521700837144
 20
87.42203694593162
 30
0.0
 10
43.59702331391535
 20
87.40082578798128
 30
0.0
 10
43.1895910695179
 20
87.3811036655516
 30
0.0
  0
SPLINE
  5
D3
330
1F
100
AcDbEntity
  8
0
  6
Continuous
 62
     7
370
    25
100
AcDbSpline
210
0.0
220
0.0
230
1.0
 70
     8
 71
     3
 72
     9
 73
     5
 74
     0
 42
0.00000001
 43
0.00000001
 40
0.0
 40
0.0
 40
0.0
 40
0.0
 40
0.0702005767034274
 40
1.0
 40
1.0
 40
1.0
 40
1.0
 10
23.22388752935894
 20
100.5802601453892
 30
0.0
 10
23.26253798460647
 20
100.5706896885306
 30
0.0
 10
23.81310974715518
 20
100.4343595142219
 30
0.0
 10
24.42807287422401
 20
100.5086658537274
 30
0.0
 10
24.99986523512126
 20
100.5777558453468
 30
0.0
  0
SPLINE
  5
D6
330
1F
100
AcDbEntity
  8
0
  6
Continuous
 62
     7
370
    25
100
AcDbSpline
210
0.0
220
0.0
230
1.0
 70
     8
 71
     3
 72
     9
 73
     5
 74
     0
 42
0.00000001
 43
0.00000001
 40
0.0
 40
0.0
 40
0.0
 40
0.0
 40
0.0702005767034227
 40
0.9999999999999999
 40
0.9999999999999999
 40
0.9999999999999999
 40
0.9999999999999999
 10
24.92534119767054
 20
105.2699066579391
 30
0.0
 10
24.886690742423
 20
105.2794771147976
 30
0.0
 10
24.33611897987435
 20
105.4158072891062
 30
0.0
 10
23.72115585280551
 20
105.3415009496009
 30
0.0
 10
23.14936349190824
 20
105.2724109579815
 30
0.0
  0
LWPOLYLINE
  5
DA
330
1F
100
AcDbEntity
  8
0
  6
Continuous
 62
     7
370
    25
100
AcDbPolyline
 90
        9
 70
   128
 43
0.0
 10
25.4776875577
 20
105.4243943873
 10
25.6830116329
 20
105.3063426007
 10
25.8109115718
 20
105.2145831405
 10
25.859198971
 20
105.1506860365
 10
25.8270476198
 20
105.1157445858
 10
25.7150076367
 20
105.1103566464
 10
25.5249960568
 20
105.1346144073
 10
25.260264031
 20
105.1881028117
 10
24.9253411977
 20
105.2699066579
  0
LWPOLYLINE
  5
DD
330
1F
100
AcDbEntity
  8
0
  6
Continuous
 62
     7
370
    25
100
AcDbPolyline
 90
        9
 70
   128
 43
0.0
 10
16.8383203161
 20
108.261569638
 10
16.6329962409
 20
108.3796214246
 10
16.505096302
 20
108.4713808848
 10
16.4568089028
 20
108.5352779889
 10
16.488960254
 20
108.5702194396
 10
16.6010002371
 20
108.575607379
 10
16.791011817
 20
108.551349618
 10
17.0557438428
 20
108.4978612137
 10
17.3906666761
 20
108.4160573674
  0
SPLINE
  5
DF
330
1F
100
AcDbEntity
  8
0
  6
Continuous
 62
     7
370
    25
100
AcDbSpline
210
0.0
220
0.0
230
1.0
 70
     8
 71
     3
 72
     9
 73
     5
 74
     0
 42
0.00000001
 43
0.00000001
 40
0.0
 40
0.0
 40
0.0
 40
0.0
 40
0.7614488316260305
 40
0.9999999999999999
 40
0.9999999999999999
 40
0.9999999999999999
 40
0.9999999999999999
 10
23.14936349190824
 20
105.2724109579815
 30
0.0
 10
22.53416562194179
 20
105.6929001922484
 30
0.0
 10
21.72623494503376
 20
106.2451227669012
 30
0.0
 10
20.82148639946783
 20
106.6030987050003
 30
0.0
 10
20.60565757683842
 20
106.6884942832837
 30
0.0
  0
SPLINE
  5
E0
330
1F
100
AcDbEntity
  8
0
  6
Continuous
 62
     7
370
    25
100
AcDbSpline
210
0.0
220
0.0
230
1.0
 70
     8
 71
     3
 72
     9
 73
     5
 74
     0
 42
0.00000001
 43
0.00000001
 40
0.0
 40
0.0
 40
0.0
 40
0.0
 40
0.2385511683739704
 40
1.0
 40
1.0
 40
1.0
 40
1.0
 10
18.90420390852682
 20
101.9988477707338
 30
0.0
 10
19.12358541398086
 20
101.9232443054707
 30
0.0
 10
20.04322670917725
 20
101.6063166384279
 30
0.0
 10
21.01323418711091
 20
101.5008196601584
 30
0.0
 10
21.75184524785203
 20
101.4204891093151
 30
0.0
  0
SPLINE
  5
E1
330
1F
100
AcDbEntity
  8
0
  6
Continuous
 62
     7
370
    25
100
AcDbSpline
210
0.0
220
0.0
230
1.0
 70
     8
 71
     3
 72
     9
 73
     5
 74
     0
 42
0.00000001
 43
0.00000001
 40
0.0
 40
0.0
 40
0.0
 40
0.0
 40
0.2195232506482821
 40
1.0
 40
1.0
 40
1.0
 40
1.0
 10
16.360497993457
 20
103.4149310960359
 30
0.0
 10
16.5335639525261
 20
103.2894605010581
 30
0.0
 10
17.32193583822845
 20
102.7179010211062
 30
0.0
 10
18.21061246423577
 20
102.3140466879147
 30
0.0
 10
18.90420390852682
 20
101.9988477707338
 30
0.0
  0
SPLINE
  5
E3
330
1F
100
AcDbEntity
  8
0
  6
Continuous
 62
     7
370
    25
100
AcDbSpline
210
0.0
220
0.0
230
1.0
 70
     8
 71
     3
 72
     9
 73
     5
 74
     0
 42
0.00000001
 43
0.00000001
 40
0.0
 40
0.0
 40
0.0
 40
0.0
 40
0.7804767493517188
 40
1.0
 40
1.0
 40
1.0
 40
1.0
 10
20.60565757683842
 20
106.6884942832837
 30
0.0
 10
19.87456623834699
 20
106.9003337900186
 30
0.0
 10
18.93784219230887
 20
107.1717570027036
 30
0.0
 10
17.97039367981149
 20
107.2497349682309
 30
0.0
 10
17.75801623751322
 20
107.2668529447023
 30
0.0
  0
SPLINE
  5
E6
330
1F
100
AcDbEntity
  8
0
  6
Continuous
 62
     7
370
    25
100
AcDbSpline
210
0.0
220
0.0
230
1.0
 70
     8
 71
     3
 72
     9
 73
     5
 74
     0
 42
0.00000001
 43
0.00000001
 40
0.0
 40
0.0
 40
0.0
 40
0.0
 40
0.0702005767034292
 40
1.0
 40
1.0
 40
1.0
 40
1.0
 10
15.13686664776642
 20
103.5719231254705
 30
0.0
 10
15.1624232260811
 20
103.558690395331
 30
0.0
 10
15.52647405749595
 20
103.3701915145402
 30
0.0
 10
15.95865572668535
 20
103.3933750542157
 30
0.0
 10
16.360497993457
 20
103.4149310960359
 30
0.0
  0
SPLINE
  5
E9
330
1F
100
AcDbEntity
  8
0
  6
Continuous
 62
     7
370
    25
100
AcDbSpline
210
0.0
220
0.0
230
1.0
 70
     8
 71
     3
 72
     9
 73
     5
 74
     0
 42
0.00000001
 43
0.00000001
 40
0.0
 40
0.0
 40
0.0
 40
0.0
 40
0.070200576703424
 40
1.0
 40
1.0
 40
1.0
 40
1.0
 10
16.83832031607801
 20
108.2615696380203
 30
0.0
 10
16.81276373776334
 20
108.2748023681598
 30
0.0
 10
16.44871290634847
 20
108.4633012489504
 30
0.0
 10
16.01653123715906
 20
108.440117709275
 30
0.0
 10
15.61468897038742
 20
108.4185616674549
 30
0.0
  0
SPLINE
  5
EF
330
1F
100
AcDbEntity
  8
0
  6
Continuous
 62
     7
370
    25
100
AcDbSpline
210
0.0
220
0.0
230
1.0
 70
     8
 71
     3
 72
     9
 73
     5
 74
     0
 42
0.00000001
 43
0.00000001
 40
0.0
 40
0.0
 40
0.0
 40
0.0
 40
0.0702005767034249
 40
1.0
 40
1.0
 40
1.0
 40
1.0
 10
-53.27793566637527
 20
123.7256425074988
 30
0.0
 10
-53.23740788185859
 20
123.7076889901609
 30
0.0
 10
-52.66009375682054
 20
123.451942980925
 30
0.0
 10
-52.01892441271627
 20
123.4092275992266
 30
0.0
 10
-51.42276552633267
 20
123.3695108619575
 30
0.0
  0
SPLINE
  5
F2
330
1F
100
AcDbEntity
  8
0
  6
Continuous
 62
     7
370
    25
100
AcDbSpline
210
0.0
220
0.0
230
1.0
 70
     8
 71
     3
 72
     9
 73
     5
 74
     0
 42
0.00000001
 43
0.00000001
 40
0.0
 40
0.0
 40
0.0
 40
0.0
 40
0.070200576703428
 40
1.0
 40
1.0
 40
1.0
 40
1.0
 10
-51.57648199806368
 20
128.4152890200487
 30
0.0
 10
-51.6170097825804
 20
128.4332425373866
 30
0.0
 10
-52.19432390761843
 20
128.6889885466225
 30
0.0
 10
-52.8354932517227
 20
128.7317039283209
 30
0.0
 10
-53.4316521381063
 20
128.7714206655901
 30
0.0
  0
LWPOLYLINE
  5
F6
330
1F
100
AcDbEntity
  8
0
  6
Continuous
 62
     7
370
    25
100
AcDbPolyline
 90
        3
 70
   128
 43
0.0
 10
-45.0040091116
 20
126.5462069967
 10
-44.6710115681
 20
126.4041051386
 10
-44.2546352684
 20
126.2195034277
  0
LWPOLYLINE
  5
F7
330
1F
100
AcDbEntity
  8
0
  6
Continuous
 62
     7
370
    25
100
AcDbPolyline
 90
        9
 70
   128
 43
0.0
 10
-44.2546352684
 20
126.2195034277
 10
-43.9008983825
 20
126.0536869669
 10
-43.6158534466
 20
125.9094929219
 10
-43.4043776585
 20
125.7893884927
 10
-43.2700894276
 20
125.6954286994
 10
-43.2152864628
 20
125.6292212202
 10
-43.240906458
 20
125.5918988834
 10
-43.346511048
 20
125.5841002844
 10
-43.5302933089
 20
125.6059588595
  0
LWPOLYLINE
  5
FA
330
1F
100
AcDbEntity
  8
0
  6
Continuous
 62
     7
370
    25
100
AcDbPolyline
 90
        9
 70
   128
 43
0.0
 10
-51.5764819981
 20
128.41528902
 10
-51.930218884
 20
128.5811054808
 10
-52.2152638199
 20
128.7252995258
 10
-52.426739608
 20
128.845403955
 10
-52.5610278388
 20
128.9393637483
 10
-52.6158308036
 20
129.0055712275
 10
-52.5902108084
 20
129.0428935643
 10
-52.4846062185
 20
129.0506921633
 10
-52.3008239575
 20
129.0288335882
  0
SPLINE
  5
FC
330
1F
100
AcDbEntity
  8
0
  6
Continuous
 62
     7
370
    25
100
AcDbSpline
210
0.0
220
0.0
230
1.0
 70
     8
 71
     3
 72
     9
 73
     5
 74
     0
 42
0.00000001
 43
0.00000001
 40
0.0
 40
0.0
 40
0.0
 40
0.0
 40
0.780476749351718
 40
1.0
 40
1.0
 40
1.0
 40
1.0
 10
-47.19121667377187
 20
126.7038516557296
 30
0.0
 10
-47.9187113279938
 20
126.8996304626973
 30
0.0
 10
-48.85082705703533
 20
127.1504756123193
 30
0.0
 10
-49.81384291148242
 20
127.2086599054575
 30
0.0
 10
-50.02524728227646
 20
127.2214327106239
 30
0.0
  0
SPLINE
  5
FE
330
1F
100
AcDbEntity
  8
0
  6
Continuous
 62
     7
370
    25
100
AcDbSpline
210
0.0
220
0.0
230
1.0
 70
     8
 71
     3
 72
     9
 73
     5
 74
     0
 42
0.00000001
 43
0.00000001
 40
0.0
 40
0.0
 40
0.0
 40
0.0
 40
0.2385511683739674
 40
1.0
 40
1.0
 40
1.0
 40
1.0
 10
-48.89267034208346
 20
122.0142051431797
 30
0.0
 10
-48.67438754727564
 20
121.943507880546
 30
0.0
 10
-47.75935201718077
 20
121.6471468812871
 30
0.0
 10
-46.79383303470093
 20
121.5616929127703
 30
0.0
 10
-46.05863973357887
 20
121.4966240882854
 30
0.0
  0
SPLINE
  5
FF
330
1F
100
AcDbEntity
  8
0
  6
Continuous
 62
     7
370
    25
100
AcDbSpline
210
0.0
220
0.0
230
1.0
 70
     8
 71
     3
 72
     9
 73
     5
 74
     0
 42
0.00000001
 43
0.00000001
 40
0.0
 40
0.0
 40
0.0
 40
0.0
 40
0.2195232506482829
 40
1.0
 40
1.0
 40
1.0
 40
1.0
 10
-51.42276552633267
 20
123.3695108619575
 30
0.0
 10
-51.25067263876779
 20
123.2483854382848
 30
0.0
 10
-50.46673341111577
 20
122.696619630722
 30
0.0
 10
-49.58266510210503
 20
122.3133433605934
 30
0.0
 10
-48.89267034208347
 20
122.0142051431797
 30
0.0
  0
SPLINE
  5
100
330
1F
100
AcDbEntity
  8
0
  6
Continuous
 62
     7
370
    25
100
AcDbSpline
210
0.0
220
0.0
230
1.0
 70
     8
 71
     3
 72
     9
 73
     5
 74
     0
 42
0.00000001
 43
0.00000001
 40
0.0
 40
0.0
 40
0.0
 40
0.0
 40
0.7614488316260323
 40
1.0
 40
1.0
 40
1.0
 40
1.0
 10
-44.66112148952266
 20
125.3485459369518
 30
0.0
 10
-45.27290159987002
 20
125.7537734448603
 30
0.0
 10
-46.07634378132424
 20
126.2859530097604
 30
0.0
 10
-46.9764865617887
 20
126.6233622800756
 30
0.0
 10
-47.19121667377187
 20
126.7038516557296
 30
0.0
  0
SPLINE
  5
102
330
1F
100
AcDbEntity
  8
0
  6
Continuous
 62
     7
370
    25
100
AcDbSpline
210
0.0
220
0.0
230
1.0
 70
     8
 71
     3
 72
     9
 73
     5
 74
     0
 42
0.00000001
 43
0.00000001
 40
0.0
 40
0.0
 40
0.0
 40
0.0
 40
0.0702005767034272
 40
1.0
 40
1.0
 40
1.0
 40
1.0
 10
-43.530293308933
 20
125.6059588595405
 30
0.0
 10
-43.55364990312422
 20
125.6093677403086
 30
0.0
 10
-43.88636218681231
 20
125.6579268964891
 30
0.0
 10
-44.28783360055481
 20
125.4976092200495
 30
0.0
 10
-44.66112148952266
 20
125.3485459369518
 30
0.0
  0
SPLINE
  5
106
330
1F
100
AcDbEntity
  8
0
  6
Continuous
 62
     7
370
    25
100
AcDbSpline
210
0.0
220
0.0
230
1.0
 70
     8
 71
     3
 72
     9
 73
     5
 74
     0
 42
0.00000001
 43
0.00000001
 40
0.0
 40
0.0
 40
0.0
 40
0.0
 40
0.0702005767034252
 40
1.0
 40
1.0
 40
1.0
 40
1.0
 10
-45.23174697724459
 20
120.9163123469907
 30
0.0
 10
-45.20839038305337
 20
120.9129034662225
 30
0.0
 10
-44.87567809936523
 20
120.8643443100419
 30
0.0
 10
-44.47420668562275
 20
121.0246619864816
 30
0.0
 10
-44.10091879665492
 20
121.1737252695794
 30
0.0
  0
LWPOLYLINE
  5
10B
330
1F
100
AcDbEntity
  8
0
  6
Continuous
 62
     7
370
    25
100
AcDbPolyline
 90
        3
 70
   128
 43
0.0
 10
-44.9620072117
 20
120.8973987043
 10
-45.0479647163
 20
120.8944537719
 10
-45.2317469772
 20
120.916312347
  0
SPLINE
  5
10D
330
1F
100
AcDbEntity
  8
0
  6
Continuous
 62
     7
370
    25
100
AcDbSpline
210
0.0
220
0.0
230
1.0
 70
     8
 71
     3
 72
     9
 73
     5
 74
     0
 42
0.00000001
 43
0.00000001
 40
0.0
 40
0.0
 40
0.0
 40
0.0
 40
0.070200576703427
 40
0.9999999999999999
 40
0.9999999999999999
 40
0.9999999999999999
 40
0.9999999999999999
 10
-89.96461034463937
 20
21.47665909856983
 30
0.0
 10
-89.91872645004747
 20
21.45713869214609
 30
0.0
 10
-89.26511508748365
 20
21.17907250892644
 30
0.0
 10
-88.54917815444256
 20
21.11448444025335
 30
0.0
 10
-87.88350040698423
 20
21.05443049124927
 30
0.0
  0
SPLINE
  5
110
330
1F
100
AcDbEntity
  8
0
  6
Continuous
 62
     7
370
    25
100
AcDbSpline
210
0.0
220
0.0
230
1.0
 70
     8
 71
     3
 72
     9
 73
     5
 74
     0
 42
0.00000001
 43
0.00000001
 40
0.0
 40
0.0
 40
0.0
 40
0.0
 40
0.219523250648278
 40
1.0
 40
1.0
 40
1.0
 40
1.0
 10
-87.88350040698423
 20
21.05443049124927
 30
0.0
 10
-87.715960663865
 20
20.93656147656672
 30
0.0
 10
-86.95276249408359
 20
20.39962967396966
 30
0.0
 10
-86.09025717694534
 20
20.03177525601979
 30
0.0
 10
-85.41709183072669
 20
19.7446734356636
 30
0.0
  0
SPLINE
  5
113
330
1F
100
AcDbEntity
  8
0
  6
Continuous
 62
     7
370
    25
100
AcDbSpline
210
0.0
220
0.0
230
1.0
 70
     8
 71
     3
 72
     9
 73
     5
 74
     0
 42
0.00000001
 43
0.00000001
 40
0.0
 40
0.0
 40
0.0
 40
0.0
 40
0.2385511683739679
 40
1.0
 40
1.0
 40
1.0
 40
1.0
 10
-85.41709183072666
 20
19.7446734356636
 30
0.0
 10
-85.20395006435771
 20
19.67765303666274
 30
0.0
 10
-84.3104655854436
 20
19.39670534959965
 30
0.0
 10
-83.36594893224397
 20
19.32627224736542
 30
0.0
 10
-82.64674783021377
 20
19.27264104396137
 30
0.0
  0
SPLINE
  5
117
330
1F
100
AcDbEntity
  8
0
  6
Continuous
 62
     7
370
    25
100
AcDbSpline
210
0.0
220
0.0
230
1.0
 70
     8
 71
     3
 72
     9
 73
     5
 74
     0
 42
0.00000001
 43
0.00000001
 40
0.0
 40
0.0
 40
0.0
 40
0.0
 40
0.0702005767034257
 40
1.0
 40
1.0
 40
1.0
 40
1.0
 10
-82.10948147948365
 20
18.80397492763797
 30
0.0
 10
-82.09299074480674
 20
18.80321270878192
 30
0.0
 10
-81.85808192423409
 20
18.79235497951748
 30
0.0
 10
-81.55245315648975
 20
18.98961822412466
 30
0.0
 10
-81.26827970449818
 20
19.17303347519802
 30
0.0
  0
SPLINE
  5
11B
330
1F
100
AcDbEntity
  8
0
  6
Continuous
 62
     7
370
    25
100
AcDbSpline
210
0.0
220
0.0
230
1.0
 70
     8
 71
     3
 72
     9
 73
     5
 74
     0
 42
0.00000001
 43
0.00000001
 40
0.0
 40
0.0
 40
0.0
 40
0.0
 40
0.0702005767034263
 40
1.0
 40
1.0
 40
1.0
 40
1.0
 10
119.7178572237077
 20
58.8806156512185
 30
0.0
 10
119.7579759362942
 20
58.87042959222153
 30
0.0
 10
120.3294628737307
 20
58.72533022872185
 30
0.0
 10
120.9649218568655
 20
58.7910431885192
 30
0.0
 10
121.5557712529128
 20
58.85214306064186
 30
0.0
  0
SPLINE
  5
11E
330
1F
100
AcDbEntity
  8
0
  6
Continuous
 62
     7
370
    25
100
AcDbSpline
210
0.0
220
0.0
230
1.0
 70
     8
 71
     3
 72
     9
 73
     5
 74
     0
 42
0.00000001
 43
0.00000001
 40
0.0
 40
0.0
 40
0.0
 40
0.0
 40
0.070200576703426
 40
1.0
 40
1.0
 40
1.0
 40
1.0
 10
121.4193108920193
 20
63.57026216376838
 30
0.0
 10
121.3791921794328
 20
63.58044822276535
 30
0.0
 10
120.8077052419963
 20
63.725547586265
 30
0.0
 10
120.1722462588615
 20
63.6598346264677
 30
0.0
 10
119.5813968628142
 20
63.59873475434502
 30
0.0
  0
LWPOLYLINE
  5
122
330
1F
100
AcDbEntity
  8
0
  6
Continuous
 62
     7
370
    25
100
AcDbPolyline
 90
        9
 70
   128
 43
0.0
 10
122.1058263361
 20
63.6749675195
 10
122.294378387
 20
63.562540165
 10
122.404909703
 20
63.476790085
 10
122.4355290624
 20
63.4191844872
 10
122.3857125596
 20
63.3907090192
 10
122.2563125688
 20
63.3918509044
 10
122.0495431596
 20
63.4225906046
 10
121.768942214
 20
63.4824021551
 10
121.419310892
 20
63.5702621638
  0
LWPOLYLINE
  5
125
330
1F
100
AcDbEntity
  8
0
  6
Continuous
 62
     7
370
    25
100
AcDbPolyline
 90
        9
 70
   128
 43
0.0
 10
113.3631793217
 20
66.5683877661
 10
113.1746272707
 20
66.6808151206
 10
113.0640959547
 20
66.7665652006
 10
113.0334765953
 20
66.8241707985
 10
113.0832930981
 20
66.8526462664
 10
113.2126930889
 20
66.8515043812
 10
113.4194624981
 20
66.820764681
 10
113.7000634437
 20
66.7609531305
 10
114.0496947657
 20
66.6730931219
  0
SPLINE
  5
127
330
1F
100
AcDbEntity
  8
0
  6
Continuous
 62
     7
370
    25
100
AcDbSpline
210
0.0
220
0.0
230
1.0
 70
     8
 71
     3
 72
     9
 73
     5
 74
     0
 42
0.00000001
 43
0.00000001
 40
0.0
 40
0.0
 40
0.0
 40
0.0
 40
0.7614488316260285
 40
1.0
 40
1.0
 40
1.0
 40
1.0
 10
119.5813968628142
 20
63.59873475434502
 30
0.0
 10
118.9687845077123
 20
64.01976492673123
 30
0.0
 10
118.1642493509721
 20
64.57269790777883
 30
0.0
 10
117.2629850393665
 20
64.93140281285922
 30
0.0
 10
117.0479873848191
 20
65.01697228706762
 30
0.0
  0
SPLINE
  5
128
330
1F
100
AcDbEntity
  8
0
  6
Continuous
 62
     7
370
    25
100
AcDbSpline
210
0.0
220
0.0
230
1.0
 70
     8
 71
     3
 72
     9
 73
     5
 74
     0
 42
0.00000001
 43
0.00000001
 40
0.0
 40
0.0
 40
0.0
 40
0.0
 40
0.2385511683739715
 40
1.0
 40
1.0
 40
1.0
 40
1.0
 10
115.3465337165076
 20
60.32732577451775
 30
0.0
 10
115.5650840538795
 20
60.25154841332955
 30
0.0
 10
116.4812411151156
 20
59.93389177930551
 30
0.0
 10
117.4478530728815
 20
59.82768439464127
 30
0.0
 10
118.183878618758
 20
59.74681290567859
 30
0.0
  0
SPLINE
  5
129
330
1F
100
AcDbEntity
  8
0
  6
Continuous
 62
     7
370
    25
100
AcDbSpline
210
0.0
220
0.0
230
1.0
 70
     8
 71
     3
 72
     9
 73
     5
 74
     0
 42
0.00000001
 43
0.00000001
 40
0.0
 40
0.0
 40
0.0
 40
0.0
 40
0.2195232506482811
 40
1.0
 40
1.0
 40
1.0
 40
1.0
 10
112.8131242385125
 20
61.74556330724035
 30
0.0
 10
112.9854540747647
 20
61.61993870158644
 30
0.0
 10
113.7704726809635
 20
61.04767765277766
 30
0.0
 10
114.655663142517
 20
60.64309394870951
 30
0.0
 10
115.3465337165076
 20
60.32732577451775
 30
0.0
  0
SPLINE
  5
12B
330
1F
100
AcDbEntity
  8
0
  6
Continuous
 62
     7
370
    25
100
AcDbSpline
210
0.0
220
0.0
230
1.0
 70
     8
 71
     3
 72
     9
 73
     5
 74
     0
 42
0.00000001
 43
0.00000001
 40
0.0
 40
0.0
 40
0.0
 40
0.0
 40
0.7804767493517188
 40
1.0
 40
1.0
 40
1.0
 40
1.0
 10
117.0479873848192
 20
65.01697228706762
 30
0.0
 10
116.3196169166283
 20
65.22938105081344
 30
0.0
 10
115.3863790350439
 20
65.50153363437502
 30
0.0
 10
114.42228380205
 20
65.58021316875923
 30
0.0
 10
114.2106424825687
 20
65.59748515590677
 30
0.0
  0
SPLINE
  5
12E
330
1F
100
AcDbEntity
  8
0
  6
Continuous
 62
     7
370
    25
100
AcDbSpline
210
0.0
220
0.0
230
1.0
 70
     8
 71
     3
 72
     9
 73
     5
 74
     0
 42
0.00000001
 43
0.00000001
 40
0.0
 40
0.0
 40
0.0
 40
0.0
 40
0.0702005767034269
 40
1.0
 40
1.0
 40
1.0
 40
1.0
 10
111.6617256533395
 20
61.87874125356112
 30
0.0
 10
111.6855698878331
 20
61.86607305809791
 30
0.0
 10
112.0252285575103
 20
61.68561591574806
 30
0.0
 10
112.4335070923107
 20
61.71667996871054
 30
0.0
 10
112.8131242385125
 20
61.74556330724034
 30
0.0
  0
SPLINE
  5
132
330
1F
100
AcDbEntity
  8
0
  6
Continuous
 62
     7
370
    25
100
AcDbSpline
210
0.0
220
0.0
230
1.0
 70
     8
 71
     3
 72
     9
 73
     5
 74
     0
 42
0.00000001
 43
0.00000001
 40
0.0
 40
0.0
 40
0.0
 40
0.0
 40
0.0702005767034261
 40
1.0
 40
1.0
 40
1.0
 40
1.0
 10
113.3631793216511
 20
66.56838776611099
 30
0.0
 10
113.3393350871574
 20
66.58105596157421
 30
0.0
 10
112.9996764174804
 20
66.7615131039241
 30
0.0
 10
112.5913978826799
 20
66.73044905096158
 30
0.0
 10
112.211780736478
 20
66.70156571243177
 30
0.0
  0
SPLINE
  5
137
330
1F
100
AcDbEntity
  8
0
  6
Continuous
 62
     7
370
    25
100
AcDbSpline
210
0.0
220
0.0
230
1.0
 70
     8
 71
     3
 72
     9
 73
     5
 74
     0
 42
0.00000001
 43
0.00000001
 40
0.0
 40
0.0
 40
0.0
 40
0.0
 40
0.070200576703426
 40
1.0
 40
1.0
 40
1.0
 40
1.0
 10
78.9404391463088
 20
-36.63713358140647
 30
0.0
 10
79.00024055345209
 20
-36.66007629209358
 30
0.0
 10
79.8521054518838
 20
-36.98689284780419
 30
0.0
 10
80.76232122588635
 20
-37.09925391493871
 30
0.0
 10
81.60863932762935
 20
-37.20372717036136
 30
0.0
  0
SPLINE
  5
13A
330
1F
100
AcDbEntity
  8
0
  6
Continuous
 62
     7
370
    25
100
AcDbSpline
210
0.0
220
0.0
230
1.0
 70
     8
 71
     3
 72
     9
 73
     5
 74
     0
 42
0.00000001
 43
0.00000001
 40
0.0
 40
0.0
 40
0.0
 40
0.0
 40
0.2195232506482804
 40
1.0
 40
1.0
 40
1.0
 40
1.0
 10
81.60863932762935
 20
-37.20372717036136
 30
0.0
 10
81.74197753828544
 20
-37.30408071441719
 30
0.0
 10
82.34937657352359
 20
-37.76122383597483
 30
0.0
 10
83.04990869272486
 20
-38.04612767871763
 30
0.0
 10
83.59665772393546
 20
-38.26848850377932
 30
0.0
  0
SPLINE
  5
13D
330
1F
100
AcDbEntity
  8
0
  6
Continuous
 62
     7
370
    25
100
AcDbSpline
210
0.0
220
0.0
230
1.0
 70
     8
 71
     3
 72
     9
 73
     5
 74
     0
 42
0.00000001
 43
0.00000001
 40
0.0
 40
0.0
 40
0.0
 40
0.0
 40
0.2385511683739716
 40
1.0
 40
1.0
 40
1.0
 40
1.0
 10
83.59665772393546
 20
-38.26848850377933
 30
0.0
 10
83.77118199131125
 20
-38.31573190389801
 30
0.0
 10
84.50278296633635
 20
-38.5137749503467
 30
0.0
 10
85.28953791106066
 20
-38.50341428774601
 30
0.0
 10
85.88861154449695
 20
-38.49552517331384
 30
0.0
  0
SPLINE
  5
13E
330
1F
100
AcDbEntity
  8
0
  6
Continuous
 62
     7
370
    25
100
AcDbSpline
210
0.0
220
0.0
230
1.0
 70
     8
 71
     3
 72
     9
 73
     5
 74
     0
 42
0.00000001
 43
0.00000001
 40
0.0
 40
0.0
 40
0.0
 40
0.0
 40
0.0702005767034246
 40
1.0
 40
1.0
 40
1.0
 40
1.0
 10
76.04796031635685
 20
-35.31212074108947
 30
0.0
 10
76.05703139056521
 20
-35.31975182369727
 30
0.0
 10
76.18624791034814
 20
-35.42845581113086
 30
0.0
 10
76.38830335413586
 20
-35.32707714959694
 30
0.0
 10
76.57617438924362
 20
-35.23281532856812
 30
0.0
  0
SPLINE
  5
145
330
1F
100
AcDbEntity
  8
0
  6
Continuous
 62
     7
370
    25
100
AcDbSpline
210
0.0
220
0.0
230
1.0
 70
     8
 71
     3
 72
     9
 73
     5
 74
     0
 42
0.00000001
 43
0.00000001
 40
0.0
 40
0.0
 40
0.0
 40
0.0
 40
0.0702005767034271
 40
1.0
 40
1.0
 40
1.0
 40
1.0
 10
11.61490445999381
 20
-19.50690772445323
 30
0.0
 10
11.67834944091266
 20
-19.5284562517811
 30
0.0
 10
12.5821166732945
 20
-19.83541280883196
 30
0.0
 10
13.54319421497681
 20
-19.92831204138065
 30
0.0
 10
14.43680355897631
 20
-20.01468969422911
 30
0.0
  0
SPLINE
  5
148
330
1F
100
AcDbEntity
  8
0
  6
Continuous
 62
     7
370
    25
100
AcDbSpline
210
0.0
220
0.0
230
1.0
 70
     8
 71
     3
 72
     9
 73
     5
 74
     0
 42
0.00000001
 43
0.00000001
 40
0.0
 40
0.0
 40
0.0
 40
0.0
 40
0.2385511683739696
 40
1.0
 40
1.0
 40
1.0
 40
1.0
 10
7.185904036453223
 20
-17.78860965536244
 30
0.0
 10
7.329679209781505
 20
-17.84761894190848
 30
0.0
 10
7.932380820124909
 20
-18.09498426377329
 30
0.0
 10
8.593518370210148
 20
-18.13269005790601
 30
0.0
 10
9.096940785266684
 20
-18.16140109079392
 30
0.0
  0
SPLINE
  5
14C
330
1F
100
AcDbEntity
  8
0
  6
Continuous
 62
     7
370
    25
100
AcDbSpline
210
0.0
220
0.0
230
1.0
 70
     8
 71
     3
 72
     9
 73
     5
 74
     0
 42
0.00000001
 43
0.00000001
 40
0.0
 40
0.0
 40
0.0
 40
0.0
 40
0.2195232506482817
 40
1.0
 40
1.0
 40
1.0
 40
1.0
 10
5.578802711895135
 20
-16.5780935560475
 30
0.0
 10
5.684908031615912
 20
-16.68886754050198
 30
0.0
 10
6.168252367158619
 20
-17.19347916650219
 30
0.0
 10
6.739813703000351
 20
-17.52773261242724
 30
0.0
 10
7.185904036453223
 20
-17.78860965536244
 30
0.0
  0
SPLINE
  5
14F
330
1F
100
AcDbEntity
  8
0
  6
Continuous
 62
     7
370
    25
100
AcDbSpline
210
0.0
220
0.0
230
1.0
 70
     8
 71
     3
 72
     9
 73
     5
 74
     0
 42
0.00000001
 43
0.00000001
 40
0.0
 40
0.0
 40
0.0
 40
0.0
 40
0.0702005767034256
 40
1.0
 40
1.0
 40
1.0
 40
1.0
 10
15.19569819701764
 20
-20.5685425605152
 30
0.0
 10
15.21744283346467
 20
-20.5713242093901
 30
0.0
 10
15.5271929447621
 20
-20.61094851171794
 30
0.0
 10
15.90616254425704
 20
-20.44187511224376
 30
0.0
 10
16.25852825931436
 20
-20.28467076291788
 30
0.0
  0
LWPOLYLINE
  5
152
330
1F
100
AcDbEntity
  8
0
  6
Continuous
 62
     7
370
    25
100
AcDbPolyline
 90
       19
 70
   128
 43
0.0
 10
119.9086464124
 20
68.6344140754
 10
120.775539703
 20
68.2869006883
 10
121.4340453484
 20
67.9942233864
 10
121.8047378493
 20
67.791683372
 10
121.8429062191
 20
67.7037099598
 10
121.5439467892
 20
67.7409140418
 10
120.943918479
 20
67.8988082565
 10
120.1151935582
 20
68.1583482314
 10
119.1577284829
 20
68.4882296152
 10
118.1870076719
 20
68.8486638444
 10
117.3201143812
 20
69.1961772315
 10
116.6616087358
 20
69.4888545333
 10
116.290916235
 20
69.6913945478
 10
116.2527478652
 20
69.7793679599
 10
116.551707295
 20
69.742163878
 10
117.1517356052
 20
69.5842696633
 10
117.980460526
 20
69.3247296883
 10
118.9379256014
 20
68.9948483046
 10
119.9086464124
 20
68.6344140754
  0
LWPOLYLINE
  5
154
330
1F
100
AcDbEntity
  8
0
  6
Continuous
 62
     7
370
    25
100
AcDbPolyline
 90
       19
 70
   128
 43
0.0
 10
-50.2028853009
 20
129.5620638668
 10
-49.788780229
 20
129.4798783926
 10
-49.0959727017
 20
129.2822976752
 10
-48.2080255314
 20
128.9931528652
 10
-47.2320382517
 20
128.6473190939
 10
-46.2857293325
 20
128.2865090182
 10
-45.4832375955
 20
127.9542416581
 10
-44.9213553877
 20
127.690593361
 10
-44.6678539958
 20
127.5273640027
 10
-44.7533094291
 20
127.4842414526
 10
-45.167414501
 20
127.5664269268
 10
-45.8602220283
 20
127.7640076442
 10
-46.7481691986
 20
128.0531524543
 10
-47.7241564783
 20
128.3989862255
 10
-48.6704653975
 20
128.7597963013
 10
-49.4729571345
 20
129.0920636614
 10
-50.0348393423
 20
129.3557119584
 10
-50.2883407342
 20
129.5189413168
 10
-50.2028853009
 20
129.5620638668
  0
LWPOLYLINE
  5
156
330
1F
100
AcDbEntity
  8
0
  6
Continuous
 62
     7
370
    25
100
AcDbPolyline
 90
       19
 70
   128
 43
0.0
 10
50.7566330863
 20
88.593004732
 10
49.7842822896
 20
88.9349086181
 10
48.8295796842
 20
89.2961948885
 10
48.0076764942
 20
89.6332870869
 10
47.4177063744
 20
89.9055269194
 10
47.1308284282
 20
90.0800782441
 10
47.1816443698
 20
90.1358875954
 10
47.5640250467
 20
90.0662235417
 10
48.2318497059
 20
89.8794885961
 10
49.1045688374
 20
89.5982057489
 10
50.0769196341
 20
89.2563018628
 10
51.0316222395
 20
88.8950155924
 10
51.8535254295
 20
88.557923394
 10
52.4434955493
 20
88.2856835615
 10
52.7303734955
 20
88.1111322368
 10
52.6795575539
 20
88.0553228855
 10
52.2971768771
 20
88.1249869392
 10
51.6293522179
 20
88.3117218848
 10
50.7566330863
 20
88.593004732
  0
LWPOLYLINE
  5
159
330
1F
100
AcDbEntity
  8
0
  6
Continuous
 62
     7
370
    25
100
AcDbPolyline
 90
       19
 70
   128
 43
0.0
 10
18.3622831752
 20
107.8625596153
 10
18.4325851392
 20
107.9112436692
 10
18.8328639169
 20
107.8345279118
 10
19.5148399801
 20
107.6416653958
 10
20.3962569508
 20
107.3559181868
 10
21.3708029339
 20
107.0117516155
 10
22.320933301
 20
106.6506772498
 10
23.1320483076
 20
106.316245987
 10
23.706315513
 20
106.0487951731
 10
23.974469817
 20
105.8805833234
 10
23.9041678529
 20
105.8318992695
 10
23.5038890752
 20
105.9086150269
 10
22.821913012
 20
106.1014775429
 10
21.9404960414
 20
106.3872247519
 10
20.9659500583
 20
106.7313913231
 10
20.0158196911
 20
107.0924656889
 10
19.2047046845
 20
107.4268969517
 10
18.6304374791
 20
107.6943477656
 10
18.3622831752
 20
107.8625596153
  0
LWPOLYLINE
  5
15F
330
1F
100
AcDbEntity
  8
0
  6
Continuous
 62
     7
370
    25
100
AcDbPolyline
 90
       20
 70
   128
 43
0.0
 10
-77.9839927656
 20
22.9997083664
 10
-81.8259367061
 20
24.7411414104
 10
-85.3875569316
 20
26.3978149154
 10
-88.6566518511
 20
27.9640533598
 10
-91.6220220226
 20
29.4344910394
 10
-94.2735085207
 20
30.8040904492
 10
-96.6020277398
 20
32.0681595416
 10
-98.5996025129
 20
33.2223678004
 10
-100.2593894403
 20
34.2627610766
 10
-101.5757023345
 20
35.1857751347
 10
-102.5440316995
 20
35.9882478633
 10
-103.1610601803
 20
36.6674301079
 10
-103.4246739273
 20
37.2209950893
 10
-103.3339698384
 20
37.6470463747
 10
-102.8892586525
 20
37.9441243746
 10
-102.0920638853
 20
38.1112113431
 10
-100.9451166096
 20
38.1477348646
 10
-99.4523460994
 20
38.0535698149
 10
-97.6188663686
 20
37.8290387897
 10
-95.450958651
 20
37.4749109996
  0
LWPOLYLINE
  5
16A
330
1F
100
AcDbEntity
  8
0
  6
Continuous
 62
     7
370
    25
100
AcDbPolyline
 90
        3
 70
   128
 43
0.0
 10
77.9839927656
 20
-22.9997083664
 10
81.8259367061
 20
-24.7411414104
 10
81.9236871274
 20
-24.7860224698
  0
LWPOLYLINE
  5
16B
330
1F
100
AcDbEntity
  8
0
  6
Continuous
 62
     7
370
    25
100
AcDbPolyline
 90
       18
 70
   128
 43
0.0
 10
87.3778164007
 20
-27.3453770708
 10
88.6566518511
 20
-27.9640533598
 10
91.6220220226
 20
-29.4344910394
 10
94.2735085207
 20
-30.8040904492
 10
96.6020277398
 20
-32.0681595416
 10
98.5996025129
 20
-33.2223678004
 10
100.2593894403
 20
-34.2627610766
 10
101.5757023345
 20
-35.1857751347
 10
102.5440316995
 20
-35.9882478633
 10
103.1610601803
 20
-36.6674301079
 10
103.4246739273
 20
-37.2209950893
 10
103.3339698384
 20
-37.6470463747
 10
102.8892586525
 20
-37.9441243746
 10
102.0920638853
 20
-38.1112113431
 10
100.9451166096
 20
-38.1477348646
 10
99.4523460994
 20
-38.0535698149
 10
97.6188663686
 20
-37.8290387897
 10
95.450958651
 20
-37.4749109996
  0
LWPOLYLINE
  5
171
330
1F
100
AcDbEntity
  8
0
  6
Continuous
 62
     7
370
    25
100
AcDbPolyline
 90
       14
 70
   128
 43
0.0
 10
-10.68439389
 20
10.2809222987
 10
-10.5577481996
 20
10.2084997764
 10
-10.4361749961
 20
10.0877470213
 10
-10.6505096943
 20
10.0894194146
 10
-11.1775258038
 20
10.2133357267
 10
-11.9601129518
 20
10.4460677022
 10
-12.9134656775
 20
10.7623952205
 10
-13.9342734205
 20
11.1280392866
 10
-14.9119158223
 20
11.5033766925
 10
-15.740450159
 20
11.8477338061
 10
-16.3300918791
 20
12.1237941911
 10
-16.616944153
 20
12.3016424211
 10
-16.569922086
 20
12.3620058809
 10
-16.324648697
 20
12.327266774
  0
LWPOLYLINE
  5
172
330
1F
100
AcDbEntity
  8
0
  6
Continuous
 62
     7
370
    25
100
AcDbPolyline
 90
       14
 70
   128
 43
0.0
 10
-80.6877608457
 20
28.192555063
 10
-80.5611151553
 20
28.1201325406
 10
-80.4395419518
 20
27.9993797855
 10
-80.65387665
 20
28.0010521788
 10
-81.1808927595
 20
28.1249684909
 10
-81.9634799074
 20
28.3577004664
 10
-82.9168326332
 20
28.6740279847
 10
-83.9376403762
 20
29.0396720508
 10
-84.915282778
 20
29.4150094567
 10
-85.7438171146
 20
29.7593665703
 10
-86.3334588348
 20
30.0354269553
 10
-86.6203111087
 20
30.2132751853
 10
-86.5732890417
 20
30.2736386451
 10
-86.3280156527
 20
30.2388995382
  0
LWPOLYLINE
  5
173
330
1F
100
AcDbEntity
  8
0
  6
Continuous
 62
     7
370
    25
100
AcDbPolyline
 90
       14
 70
   128
 43
0.0
 10
86.3908579692
 20
-30.0656898553
 10
86.5175036596
 20
-30.1381123777
 10
86.6390768631
 20
-30.2588651328
 10
86.4247421649
 20
-30.2571927394
 10
85.8977260554
 20
-30.1332764274
 10
85.1151389074
 20
-29.9005444518
 10
84.1617861816
 20
-29.5842169335
 10
83.1409784386
 20
-29.2185728674
 10
82.1633360369
 20
-28.8432354616
 10
81.3348017002
 20
-28.4988783479
 10
80.7451599801
 20
-28.222817963
 10
80.4583077061
 20
-28.0449697329
 10
80.5053297732
 20
-27.9846062731
 10
80.7506031621
 20
-28.0193453801
  0
LWPOLYLINE
  5
174
330
1F
100
AcDbEntity
  8
0
  6
Continuous
 62
     7
370
    25
100
AcDbPolyline
 90
       14
 70
   128
 43
0.0
 10
16.3874910135
 20
-12.1540570911
 10
16.5141367039
 20
-12.2264796135
 10
16.6357099074
 20
-12.3472323686
 10
16.4213752092
 20
-12.3455599752
 10
15.8943590997
 20
-12.2216436632
 10
15.1117719517
 20
-11.9889116876
 10
14.1584192259
 20
-11.6725841693
 10
13.137611483
 20
-11.3069401032
 10
12.1599690812
 20
-10.9316026974
 10
11.3314347445
 20
-10.5872455837
 10
10.7417930244
 20
-10.3111851988
 10
10.4549407504
 20
-10.1333369687
 10
10.5019628175
 20
-10.0729735089
 10
10.7472362064
 20
-10.1077126159
  0
LWPOLYLINE
  5
178
330
1F
100
AcDbEntity
  8
0
  6
Continuous
 62
     7
370
    25
100
AcDbPolyline
 90
       14
 70
   128
 43
0.0
 10
-79.0048649666
 20
20.1859204588
 10
-82.8468089071
 20
21.9273535029
 10
-86.4084291326
 20
23.5840270079
 10
-89.6775240521
 20
25.1502654523
 10
-92.6428942236
 20
26.6207031319
 10
-95.2943807217
 20
27.9903025416
 10
-97.6228999408
 20
29.2543716341
 10
-99.6204747139
 20
30.4085798929
 10
-101.2802616413
 20
31.4489731691
 10
-102.5965745355
 20
32.3719872272
 10
-103.5649039005
 20
33.1744599558
 10
-104.1819323812
 20
33.8536422004
 10
-104.4455461283
 20
34.4072071818
 10
-104.425543664
 20
34.7025274716
  0
LWPOLYLINE
  5
17E
330
1F
100
AcDbEntity
  8
0
  6
Continuous
 62
     7
370
    25
100
AcDbPolyline
 90
        8
 70
   128
 43
0.0
 10
102.383799262
 20
-40.3301032866
 10
102.3130976374
 20
-40.4608342822
 10
101.8683864516
 20
-40.7579122821
 10
101.0711916843
 20
-40.9249992506
 10
99.9242444086
 20
-40.9615227721
 10
98.4314738984
 20
-40.8673577224
 10
96.5979941676
 20
-40.6428266973
 10
94.43008645
 20
-40.2886989071
  0
LINE
  5
182
330
1F
100
AcDbEntity
  8
0
  6
Continuous
 62
     7
370
    25
100
AcDbLine
 10
-89.165539061
 20
78.3846450515
 30
0.0
 11
-90.186411262
 21
75.5708571439
 31
0.0
  0
LINE
  5
183
330
1F
100
AcDbEntity
  8
0
  6
Continuous
 62
     7
370
    25
100
AcDbLine
 10
116.6229316641
 20
0.5382263857
 30
0.0
 11
117.6438038651
 21
3.3520142933
 31
0.0
  0
LINE
  5
184
330
1F
100
AcDbEntity
  8
0
  6
Continuous
 62
     7
370
    25
100
AcDbLine
 10
-71.0861326762
 20
126.5945697772
 30
0.0
 11
-72.1070048772
 21
123.7807818697
 31
0.0
  0
LINE
  5
185
330
1F
100
AcDbEntity
  8
0
  6
Continuous
 62
     7
370
    25
100
AcDbLine
 10
134.7023380489
 20
48.7481511115
 30
0.0
 11
135.7232102499
 21
51.561939019
 31
0.0
  0
LINE
  5
186
330
1F
100
AcDbEntity
  8
0
  6
Continuous
 62
     7
370
    25
100
AcDbLine
 10
53.6465541929
 20
83.8813396837
 30
0.0
 11
53.419009486
 21
84.1498122747
 31
0.0
  0
LINE
  5
187
330
1F
100
AcDbEntity
  8
0
  6
Continuous
 62
     7
370
    25
100
AcDbLine
 10
51.6909673641
 20
79.3868811049
 30
0.0
 11
52.5660856133
 21
79.5385804955
 31
0.0
  0
LINE
  5
188
330
1F
100
AcDbEntity
  8
0
  6
Continuous
 62
     7
370
    25
100
AcDbLine
 10
44.0824108527
 20
87.5372296316
 30
0.0
 11
43.2072926035
 21
87.385530241
 31
0.0
  0
LINE
  5
189
330
1F
100
AcDbEntity
  8
0
  6
Continuous
 62
     7
370
    25
100
AcDbLine
 10
42.1222886666
 20
83.0481221732
 30
0.0
 11
42.3543687307
 21
82.7742984618
 31
0.0
  0
LINE
  5
18A
330
1F
100
AcDbEntity
  8
0
  6
Continuous
 62
     7
370
    25
100
AcDbLine
 10
26.0579328522
 20
104.9283088664
 30
0.0
 11
25.8395974804
 21
105.1859156628
 31
0.0
  0
LINE
  5
18B
330
1F
100
AcDbEntity
  8
0
  6
Continuous
 62
     7
370
    25
100
AcDbLine
 10
24.1115553585
 20
100.4229844931
 30
0.0
 11
24.9853999537
 21
100.5744630992
 31
0.0
  0
LINE
  5
18C
330
1F
100
AcDbEntity
  8
0
  6
Continuous
 62
     7
370
    25
100
AcDbLine
 10
16.502998847
 20
108.5733330197
 30
0.0
 11
15.6291542518
 21
108.4218544136
 31
0.0
  0
LINE
  5
18D
330
1F
100
AcDbEntity
  8
0
  6
Continuous
 62
     7
370
    25
100
AcDbLine
 10
14.5519555343
 20
104.0735136944
 30
0.0
 11
14.7749567251
 21
103.81040185
 31
0.0
  0
LINE
  5
18E
330
1F
100
AcDbEntity
  8
0
  6
Continuous
 62
     7
370
    25
100
AcDbLine
 10
-52.5705637231
 20
129.0477472309
 30
0.0
 11
-52.7700097679
 21
129.0131737964
 31
0.0
  0
LINE
  5
18F
330
1F
100
AcDbEntity
  8
0
  6
Continuous
 62
     7
370
    25
100
AcDbLine
 10
-54.7451517219
 20
124.8116810022
 30
0.0
 11
-54.298605845
 21
124.2848160611
 31
0.0
  0
LINE
  5
190
330
1F
100
AcDbEntity
  8
0
  6
Continuous
 62
     7
370
    25
100
AcDbLine
 10
-42.7857732842
 20
125.1315229554
 30
0.0
 11
-43.2339650897
 21
125.660329874
 31
0.0
  0
LINE
  5
191
330
1F
100
AcDbEntity
  8
0
  6
Continuous
 62
     7
370
    25
100
AcDbLine
 10
-44.9620072117
 20
120.8973987043
 30
0.0
 11
-44.7718848883
 21
120.9303558968
 31
0.0
  0
LINE
  5
192
330
1F
100
AcDbEntity
  8
0
  6
Continuous
 62
     7
370
    25
100
AcDbLine
 10
-91.6035851433
 20
22.5056819089
 30
0.0
 11
-91.3385935369
 21
22.1930269404
 31
0.0
  0
LINE
  5
193
330
1F
100
AcDbEntity
  8
0
  6
Continuous
 62
     7
370
    25
100
AcDbLine
 10
122.600023519
 20
63.2476016411
 30
0.0
 11
122.4160963723
 21
63.464611293
 31
0.0
  0
LINE
  5
194
330
1F
100
AcDbEntity
  8
0
  6
Continuous
 62
     7
370
    25
100
AcDbLine
 10
120.6880542504
 20
58.7016801232
 30
0.0
 11
121.5602571448
 21
58.8528741449
 31
0.0
  0
LINE
  5
195
330
1F
100
AcDbEntity
  8
0
  6
Continuous
 62
     7
370
    25
100
AcDbLine
 10
113.079497739
 20
66.8520286499
 30
0.0
 11
112.2072948446
 21
66.7008346281
 31
0.0
  0
LINE
  5
196
330
1F
100
AcDbEntity
  8
0
  6
Continuous
 62
     7
370
    25
100
AcDbLine
 10
111.1623598321
 20
62.31220544
 30
0.0
 11
111.351455617
 21
62.0890974801
 31
0.0
  0
LINE
  5
197
330
1F
100
AcDbEntity
  8
0
  6
Continuous
 62
     7
370
    25
100
AcDbLine
 10
85.3591839838
 20
-38.6738266705
 30
0.0
 11
85.6391651985
 21
-38.6252926813
 31
0.0
  0
LINE
  5
198
330
1F
100
AcDbEntity
  8
0
  6
Continuous
 62
     7
370
    25
100
AcDbLine
 10
5.6867565649
 20
-16.7231807013
 30
0.0
 11
6.08510423
 21
-17.1931781416
 31
0.0
  0
LINE
  5
199
330
1F
100
AcDbEntity
  8
0
  6
Continuous
 62
     7
370
    25
100
AcDbLine
 10
116.2276996386
 20
69.7647111975
 30
0.0
 11
114.9143754253
 21
66.1448498804
 31
0.0
  0
LINE
  5
19A
330
1F
100
AcDbEntity
  8
0
  6
Continuous
 62
     7
370
    25
100
AcDbLine
 10
113.1214996389
 20
61.2032203574
 30
0.0
 11
113.0062996325
 21
60.8856993352
 31
0.0
  0
LINE
  5
19B
330
1F
100
AcDbEntity
  8
0
  6
Continuous
 62
     7
370
    25
100
AcDbLine
 10
110.0558177247
 20
52.7534078441
 30
0.0
 11
95.4159765073
 21
12.4022178068
 31
0.0
  0
LINE
  5
19C
330
1F
100
AcDbEntity
  8
0
  6
Continuous
 62
     7
370
    25
100
AcDbLine
 10
92.5120376209
 20
4.3982109245
 30
0.0
 11
80.6877608457
 21
-28.192555063
 31
0.0
  0
LINE
  5
19D
330
1F
100
AcDbEntity
  8
0
  6
Continuous
 62
     7
370
    25
100
AcDbLine
 10
77.7926293723
 20
-36.1722864363
 30
0.0
 11
76.7539745338
 21
-39.0350878937
 31
0.0
  0
LINE
  5
19E
330
1F
100
AcDbEntity
  8
0
  6
Continuous
 62
     7
370
    25
100
AcDbLine
 10
82.3942293408
 20
-41.0814323689
 30
0.0
 11
83.4328841794
 21
-38.2186309115
 31
0.0
  0
LINE
  5
19F
330
1F
100
AcDbEntity
  8
0
  6
Continuous
 62
     7
370
    25
100
AcDbLine
 10
86.3280156527
 20
-30.2388995382
 30
0.0
 11
98.3417973424
 21
2.8741910224
 31
0.0
  0
LINE
  5
1A0
330
1F
100
AcDbEntity
  8
0
  6
Continuous
 62
     7
370
    25
100
AcDbLine
 10
101.0562313143
 20
10.3558733316
 30
0.0
 11
115.8821980656
 21
51.2200734947
 31
0.0
  0
LINE
  5
1A1
330
1F
100
AcDbEntity
  8
0
  6
Continuous
 62
     7
370
    25
100
AcDbLine
 10
118.6465544396
 20
58.83935486
 30
0.0
 11
118.7617544459
 21
59.1568758822
 31
0.0
  0
LINE
  5
1A2
330
1F
100
AcDbEntity
  8
0
  6
Continuous
 62
     7
370
    25
100
AcDbLine
 10
120.5546302324
 20
64.0985054052
 30
0.0
 11
121.8679544457
 21
67.7183667223
 31
0.0
  0
LINE
  5
1A3
330
1F
100
AcDbEntity
  8
0
  6
Continuous
 62
     7
370
    25
100
AcDbLine
 10
-50.2982247685
 20
129.5463248973
 30
0.0
 11
-50.7356860368
 21
128.3405684615
 31
0.0
  0
LINE
  5
1A4
330
1F
100
AcDbEntity
  8
0
  6
Continuous
 62
     7
370
    25
100
AcDbLine
 10
-52.5285618232
 20
123.3989389385
 30
0.0
 11
-54.0723191823
 21
119.1439442534
 31
0.0
  0
LINE
  5
1A5
330
1F
100
AcDbEntity
  8
0
  6
Continuous
 62
     7
370
    25
100
AcDbLine
 10
-56.0801498148
 20
113.6098435614
 30
0.0
 11
-71.6940634658
 21
70.5738578836
 31
0.0
  0
LINE
  5
1A6
330
1F
100
AcDbEntity
  8
0
  6
Continuous
 62
     7
370
    25
100
AcDbLine
 10
-73.6583957772
 20
65.1596498186
 30
0.0
 11
-86.3908579692
 21
30.0656898553
 31
0.0
  0
LINE
  5
1A7
330
1F
100
AcDbEntity
  8
0
  6
Continuous
 62
     7
370
    25
100
AcDbLine
 10
-89.5685495151
 20
21.3071498177
 30
0.0
 11
-89.7719498734
 21
20.7465258062
 31
0.0
  0
LINE
  5
1A8
330
1F
100
AcDbEntity
  8
0
  6
Continuous
 62
     7
370
    25
100
AcDbLine
 10
-84.1316950663
 20
18.700181331
 30
0.0
 11
-83.928294708
 21
19.2608053425
 31
0.0
  0
LINE
  5
1A9
330
1F
100
AcDbEntity
  8
0
  6
Continuous
 62
     7
370
    25
100
AcDbLine
 10
-80.7506031621
 20
28.0193453801
 30
0.0
 11
-68.2010031858
 21
62.6092897664
 31
0.0
  0
LINE
  5
1AA
330
1F
100
AcDbEntity
  8
0
  6
Continuous
 62
     7
370
    25
100
AcDbLine
 10
-66.0538086588
 20
68.5275134084
 30
0.0
 11
-50.6260205415
 21
111.0504889604
 31
0.0
  0
LINE
  5
1AB
330
1F
100
AcDbEntity
  8
0
  6
Continuous
 62
     7
370
    25
100
AcDbLine
 10
-48.4320643753
 20
117.0975997782
 30
0.0
 11
-46.8883070161
 21
121.3525944633
 31
0.0
  0
LINE
  5
1AC
330
1F
100
AcDbEntity
  8
0
  6
Continuous
 62
     7
370
    25
100
AcDbLine
 10
-45.0954312297
 20
126.2942239862
 30
0.0
 11
-44.6579699615
 21
127.4999804221
 31
0.0
  0
LINE
  5
1AD
330
1F
100
AcDbEntity
  8
0
  6
Continuous
 62
     7
370
    25
100
AcDbLine
 10
47.1104735583
 20
90.1187774781
 30
0.0
 11
45.917288539
 21
86.8300508621
 31
0.0
  0
LINE
  5
1AE
330
1F
100
AcDbEntity
  8
0
  6
Continuous
 62
     7
370
    25
100
AcDbLine
 10
44.1244127526
 20
81.8884213392
 30
0.0
 11
43.0029326768
 21
78.7973320994
 31
0.0
  0
LINE
  5
1AF
330
1F
100
AcDbEntity
  8
0
  6
Continuous
 62
     7
370
    25
100
AcDbLine
 10
41.5404400438
 20
74.7663240246
 30
0.0
 11
25.4126095516
 21
30.313850571
 31
0.0
  0
LINE
  5
1B0
330
1F
100
AcDbEntity
  8
0
  6
Continuous
 62
     7
370
    25
100
AcDbLine
 10
23.9825328736
 20
26.372189255
 30
0.0
 11
10.68439389
 21
-10.2809222987
 31
0.0
  0
LINE
  5
1B1
330
1F
100
AcDbEntity
  8
0
  6
Continuous
 62
     7
370
    25
100
AcDbLine
 10
7.8551482518
 20
-18.0790552642
 30
0.0
 11
7.6367484535
 21
-18.6810216131
 31
0.0
  0
LINE
  5
1B2
330
1F
100
AcDbEntity
  8
0
  6
Continuous
 62
     7
370
    25
100
AcDbLine
 10
13.2770032606
 20
-20.7273660883
 30
0.0
 11
13.4954030589
 21
-20.1253997395
 31
0.0
  0
LINE
  5
1B3
330
1F
100
AcDbEntity
  8
0
  6
Continuous
 62
     7
370
    25
100
AcDbLine
 10
16.324648697
 20
-12.327266774
 30
0.0
 11
29.6443806151
 21
24.3853604935
 31
0.0
  0
LINE
  5
1B4
330
1F
100
AcDbEntity
  8
0
  6
Continuous
 62
     7
370
    25
100
AcDbLine
 10
31.0528643586
 20
28.2675060958
 30
0.0
 11
47.201573072
 21
72.7775253282
 31
0.0
  0
LINE
  5
1B5
330
1F
100
AcDbEntity
  8
0
  6
Continuous
 62
     7
370
    25
100
AcDbLine
 10
48.6431874839
 20
76.7509876242
 30
0.0
 11
49.7646675596
 21
79.8420768639
 31
0.0
  0
LINE
  5
1B6
330
1F
100
AcDbEntity
  8
0
  6
Continuous
 62
     7
370
    25
100
AcDbLine
 10
51.5575433461
 20
84.7837063869
 30
0.0
 11
52.7507283654
 21
88.0724330028
 31
0.0
  0
LINE
  5
1B7
330
1F
100
AcDbEntity
  8
0
  6
Continuous
 62
     7
370
    25
100
AcDbLine
 10
18.3482490925
 20
107.8947437069
 30
0.0
 11
18.3378765334
 21
107.8661542503
 31
0.0
  0
LINE
  5
1B8
330
1F
100
AcDbEntity
  8
0
  6
Continuous
 62
     7
370
    25
100
AcDbLine
 10
16.5450007469
 20
102.9245247273
 30
0.0
 11
15.9310477733
 21
101.2323114892
 31
0.0
  0
LINE
  5
1B9
330
1F
100
AcDbEntity
  8
0
  6
Continuous
 62
     7
370
    25
100
AcDbLine
 10
10.4455953008
 20
86.1129852704
 30
0.0
 11
-1.6848391229
 21
52.678369594
 31
0.0
  0
LINE
  5
1BA
330
1F
100
AcDbEntity
  8
0
  6
Continuous
 62
     7
370
    25
100
AcDbLine
 10
-7.1161630429
 20
37.7082356701
 30
0.0
 11
-16.3874910135
 21
12.1540570911
 31
0.0
  0
LINE
  5
1BB
330
1F
100
AcDbEntity
  8
0
  6
Continuous
 62
     7
370
    25
100
AcDbLine
 10
-10.7472362064
 20
10.1077126159
 30
0.0
 11
-1.4960734038
 21
35.6063107748
 31
0.0
  0
LINE
  5
1BC
330
1F
100
AcDbEntity
  8
0
  6
Continuous
 62
     7
370
    25
100
AcDbLine
 10
3.9809794552
 20
50.7024854856
 30
0.0
 11
16.0649718868
 21
84.0090950163
 31
0.0
  0
LINE
  5
1BD
330
1F
100
AcDbEntity
  8
0
  6
Continuous
 62
     7
370
    25
100
AcDbLine
 10
21.5713025804
 20
99.185967014
 30
0.0
 11
22.185255554
 21
100.8781802521
 31
0.0
  0
LINE
  5
1BE
330
1F
100
AcDbEntity
  8
0
  6
Continuous
 62
     7
370
    25
100
AcDbLine
 10
23.9781313404
 20
105.8198097751
 30
0.0
 11
23.9885038996
 21
105.8483992317
 31
0.0
  0
LINE
  5
1BF
330
1F
100
AcDbEntity
  8
0
  6
Continuous
 62
     7
370
    25
100
AcDbLine
 10
-103.404671463
 20
37.5163153791
 30
0.0
 11
-104.425543664
 21
34.7025274716
 31
0.0
  0
LINE
  5
1C0
330
1F
100
AcDbEntity
  8
0
  6
Continuous
 62
     7
370
    25
100
AcDbLine
 10
102.383799262
 20
-40.3301032866
 30
0.0
 11
103.404671463
 21
-37.5163153791
 31
0.0
  0
LINE
  5
1C1
330
1F
100
AcDbEntity
  8
0
  6
Continuous
 62
     7
370
    25
100
AcDbLine
 10
53.9813053913
 20
83.3949289196
 30
0.0
 11
52.5837871473
 21
79.5430070709
 31
0.0
  0
LINE
  5
1C2
330
1F
100
AcDbEntity
  8
0
  6
Continuous
 62
     7
370
    25
100
AcDbLine
 10
49.3675926708
 20
80.3724650605
 30
0.0
 11
50.8237221969
 21
79.5388737338
 31
0.0
  0
LINE
  5
1C3
330
1F
100
AcDbEntity
  8
0
  6
Continuous
 62
     7
370
    25
100
AcDbLine
 10
50.7651109148
 20
84.2243869092
 30
0.0
 11
49.3675926708
 21
80.3724650605
 31
0.0
  0
LINE
  5
1C4
330
1F
100
AcDbEntity
  8
0
  6
Continuous
 62
     7
370
    25
100
AcDbLine
 10
53.9813053913
 20
83.3949289196
 30
0.0
 11
52.5251758652
 21
84.2285202463
 31
0.0
  0
LINE
  5
1C5
330
1F
100
AcDbEntity
  8
0
  6
Continuous
 62
     7
370
    25
100
AcDbLine
 10
45.3692537539
 20
86.2174742821
 30
0.0
 11
43.9717355099
 21
82.3655524335
 31
0.0
  0
LINE
  5
1C6
330
1F
100
AcDbEntity
  8
0
  6
Continuous
 62
     7
370
    25
100
AcDbLine
 10
45.3692537539
 20
86.2174742821
 30
0.0
 11
44.4313901239
 21
87.2181513058
 31
0.0
  0
LINE
  5
1C7
330
1F
100
AcDbEntity
  8
0
  6
Continuous
 62
     7
370
    25
100
AcDbLine
 10
41.7920728255
 20
83.5291818169
 30
0.0
 11
42.7299364555
 21
82.5285047932
 31
0.0
  0
LINE
  5
1C8
330
1F
100
AcDbEntity
  8
0
  6
Continuous
 62
     7
370
    25
100
AcDbLine
 10
43.1895910695
 20
87.3811036656
 30
0.0
 11
41.7920728255
 21
83.5291818169
 31
0.0
  0
LINE
  5
1C9
330
1F
100
AcDbEntity
  8
0
  6
Continuous
 62
     7
370
    25
100
AcDbLine
 10
53.5882467976
 20
83.8317191412
 30
0.0
 11
53.9813053913
 21
83.3949289196
 31
0.0
  0
LINE
  5
1CA
330
1F
100
AcDbEntity
  8
0
  6
Continuous
 62
     7
370
    25
100
AcDbLine
 10
43.1895910695
 20
87.3811036656
 30
0.0
 11
43.3095164833
 21
87.3813852984
 31
0.0
  0
LINE
  5
1CB
330
1F
100
AcDbEntity
  8
0
  6
Continuous
 62
     7
370
    25
100
AcDbLine
 10
26.3973834792
 20
104.429677694
 30
0.0
 11
24.9998652351
 21
100.5777558453
 31
0.0
  0
LINE
  5
1CC
330
1F
100
AcDbEntity
  8
0
  6
Continuous
 62
     7
370
    25
100
AcDbLine
 10
21.7518452479
 20
101.4204891093
 30
0.0
 11
23.2238875294
 21
100.5802601454
 31
0.0
  0
LINE
  5
1CD
330
1F
100
AcDbEntity
  8
0
  6
Continuous
 62
     7
370
    25
100
AcDbLine
 10
23.1493634919
 20
105.272410958
 30
0.0
 11
21.7518452479
 21
101.4204891093
 31
0.0
  0
LINE
  5
1CE
330
1F
100
AcDbEntity
  8
0
  6
Continuous
 62
     7
370
    25
100
AcDbLine
 10
26.3973834792
 20
104.429677694
 30
0.0
 11
24.9253411977
 21
105.2699066579
 31
0.0
  0
LINE
  5
1CF
330
1F
100
AcDbEntity
  8
0
  6
Continuous
 62
     7
370
    25
100
AcDbLine
 10
17.7580162375
 20
107.2668529447
 30
0.0
 11
16.3604979935
 21
103.414931096
 31
0.0
  0
LINE
  5
1D0
330
1F
100
AcDbEntity
  8
0
  6
Continuous
 62
     7
370
    25
100
AcDbLine
 10
17.7580162375
 20
107.2668529447
 30
0.0
 11
16.8383203161
 21
108.261569638
 31
0.0
  0
LINE
  5
1D1
330
1F
100
AcDbEntity
  8
0
  6
Continuous
 62
     7
370
    25
100
AcDbLine
 10
14.2171707263
 20
104.5666398188
 30
0.0
 11
15.1368666478
 21
103.5719231255
 31
0.0
  0
LINE
  5
1D2
330
1F
100
AcDbEntity
  8
0
  6
Continuous
 62
     7
370
    25
100
AcDbLine
 10
15.6146889704
 20
108.4185616675
 30
0.0
 11
14.2171707263
 21
104.5666398188
 31
0.0
  0
LINE
  5
1D3
330
1F
100
AcDbEntity
  8
0
  6
Continuous
 62
     7
370
    25
100
AcDbLine
 10
25.9992100861
 20
104.8783847501
 30
0.0
 11
26.3973834792
 21
104.429677694
 31
0.0
  0
LINE
  5
1D4
330
1F
100
AcDbEntity
  8
0
  6
Continuous
 62
     7
370
    25
100
AcDbLine
 10
-50.0252472823
 20
127.2214327106
 30
0.0
 11
-51.4227655263
 21
123.369510862
 31
0.0
  0
LINE
  5
1D5
330
1F
100
AcDbEntity
  8
0
  6
Continuous
 62
     7
370
    25
100
AcDbLine
 10
-54.8291703822
 20
124.9194988169
 30
0.0
 11
-53.2779356664
 21
123.7256425075
 31
0.0
  0
LINE
  5
1D6
330
1F
100
AcDbEntity
  8
0
  6
Continuous
 62
     7
370
    25
100
AcDbLine
 10
-53.4316521381
 20
128.7714206656
 30
0.0
 11
-54.8291703822
 21
124.9194988169
 31
0.0
  0
LINE
  5
1D7
330
1F
100
AcDbEntity
  8
0
  6
Continuous
 62
     7
370
    25
100
AcDbLine
 10
-50.0252472823
 20
127.2214327106
 30
0.0
 11
-51.5764819981
 21
128.41528902
 31
0.0
  0
LINE
  5
1D8
330
1F
100
AcDbEntity
  8
0
  6
Continuous
 62
     7
370
    25
100
AcDbLine
 10
-50.7028401566
 20
128.2905767385
 30
0.0
 11
-50.7356860368
 21
128.3405684615
 31
0.0
  0
LINE
  5
1D9
330
1F
100
AcDbEntity
  8
0
  6
Continuous
 62
     7
370
    25
100
AcDbLine
 10
-44.6611214895
 20
125.348545937
 30
0.0
 11
-46.0586397336
 21
121.4966240883
 31
0.0
  0
LINE
  5
1DA
330
1F
100
AcDbEntity
  8
0
  6
Continuous
 62
     7
370
    25
100
AcDbLine
 10
-46.0586397336
 20
121.4966240883
 30
0.0
 11
-45.2317469772
 21
120.916312347
 31
0.0
  0
LINE
  5
1DB
330
1F
100
AcDbEntity
  8
0
  6
Continuous
 62
     7
370
    25
100
AcDbLine
 10
-42.7034005526
 20
125.0256471182
 30
0.0
 11
-44.1009187967
 21
121.1737252696
 31
0.0
  0
LINE
  5
1DC
330
1F
100
AcDbEntity
  8
0
  6
Continuous
 62
     7
370
    25
100
AcDbLine
 10
-42.7034005526
 20
125.0256471182
 30
0.0
 11
-43.5302933089
 21
125.6059588595
 31
0.0
  0
LINE
  5
1DD
330
1F
100
AcDbEntity
  8
0
  6
Continuous
 62
     7
370
    25
100
AcDbLine
 10
-53.4316521381
 20
128.7714206656
 30
0.0
 11
-52.7545598604
 21
128.92554868
 31
0.0
  0
LINE
  5
1DE
330
1F
100
AcDbEntity
  8
0
  6
Continuous
 62
     7
370
    25
100
AcDbLine
 10
-54.7165556648
 20
124.8353419246
 30
0.0
 11
-54.8291703822
 21
124.9194988169
 31
0.0
  0
LINE
  5
1DF
330
1F
100
AcDbEntity
  8
0
  6
Continuous
 62
     7
370
    25
100
AcDbLine
 10
-86.8841336747
 20
23.8089437631
 30
0.0
 11
-87.883500407
 21
21.0544304912
 31
0.0
  0
LINE
  5
1E0
330
1F
100
AcDbEntity
  8
0
  6
Continuous
 62
     7
370
    25
100
AcDbLine
 10
-91.741784858
 20
22.7366123698
 30
0.0
 11
-89.9646103446
 21
21.4766590986
 31
0.0
  0
LINE
  5
1E1
330
1F
100
AcDbEntity
  8
0
  6
Continuous
 62
     7
370
    25
100
AcDbLine
 10
-90.6867202465
 20
25.6446434072
 30
0.0
 11
-91.741784858
 21
22.7366123698
 31
0.0
  0
LINE
  5
1E2
330
1F
100
AcDbEntity
  8
0
  6
Continuous
 62
     7
370
    25
100
AcDbLine
 10
-81.8491562247
 20
21.4710098628
 30
0.0
 11
-82.6467478302
 21
19.272641044
 31
0.0
  0
LINE
  5
1E3
330
1F
100
AcDbEntity
  8
0
  6
Continuous
 62
     7
370
    25
100
AcDbLine
 10
-82.6467478302
 20
19.272641044
 30
0.0
 11
-82.1094814795
 21
18.8039749276
 31
0.0
  0
LINE
  5
1E4
330
1F
100
AcDbEntity
  8
0
  6
Continuous
 62
     7
370
    25
100
AcDbLine
 10
-80.6346406874
 20
20.9195065424
 30
0.0
 11
-81.2682797045
 21
19.1730334752
 31
0.0
  0
LINE
  5
1E5
330
1F
100
AcDbEntity
  8
0
  6
Continuous
 62
     7
370
    25
100
AcDbLine
 10
-91.547546869
 20
22.552800307
 30
0.0
 11
-91.741784858
 21
22.7366123698
 31
0.0
  0
LINE
  5
1E6
330
1F
100
AcDbEntity
  8
0
  6
Continuous
 62
     7
370
    25
100
AcDbLine
 10
122.953289497
 20
62.7040649093
 30
0.0
 11
121.5557712529
 21
58.8521430606
 31
0.0
  0
LINE
  5
1E7
330
1F
100
AcDbEntity
  8
0
  6
Continuous
 62
     7
370
    25
100
AcDbLine
 10
118.1838786188
 20
59.7468129057
 30
0.0
 11
119.7178572237
 21
58.8806156512
 31
0.0
  0
LINE
  5
1E8
330
1F
100
AcDbEntity
  8
0
  6
Continuous
 62
     7
370
    25
100
AcDbLine
 10
119.5813968628
 20
63.5987347543
 30
0.0
 11
118.1838786188
 21
59.7468129057
 31
0.0
  0
LINE
  5
1E9
330
1F
100
AcDbEntity
  8
0
  6
Continuous
 62
     7
370
    25
100
AcDbLine
 10
122.953289497
 20
62.7040649093
 30
0.0
 11
121.419310892
 21
63.5702621638
 31
0.0
  0
LINE
  5
1EA
330
1F
100
AcDbEntity
  8
0
  6
Continuous
 62
     7
370
    25
100
AcDbLine
 10
114.2106424826
 20
65.5974851559
 30
0.0
 11
112.8131242385
 21
61.7455633072
 31
0.0
  0
LINE
  5
1EB
330
1F
100
AcDbEntity
  8
0
  6
Continuous
 62
     7
370
    25
100
AcDbLine
 10
114.2106424826
 20
65.5974851559
 30
0.0
 11
113.3631793217
 21
66.5683877661
 31
0.0
  0
LINE
  5
1EC
330
1F
100
AcDbEntity
  8
0
  6
Continuous
 62
     7
370
    25
100
AcDbLine
 10
110.8142624924
 20
62.8496438638
 30
0.0
 11
111.6617256533
 21
61.8787412536
 31
0.0
  0
LINE
  5
1ED
330
1F
100
AcDbEntity
  8
0
  6
Continuous
 62
     7
370
    25
100
AcDbLine
 10
112.2117807365
 20
66.7015657124
 30
0.0
 11
110.8142624924
 21
62.8496438638
 31
0.0
  0
LINE
  5
1EE
330
1F
100
AcDbEntity
  8
0
  6
Continuous
 62
     7
370
    25
100
AcDbLine
 10
122.5407241054
 20
63.1973845607
 30
0.0
 11
122.953289497
 21
62.7040649093
 31
0.0
  0
LINE
  5
1EF
330
1F
100
AcDbEntity
  8
0
  6
Continuous
 62
     7
370
    25
100
AcDbLine
 10
82.3160757617
 20
-35.253849329
 30
0.0
 11
81.6086393276
 21
-37.2037271704
 31
0.0
  0
LINE
  5
1F0
330
1F
100
AcDbEntity
  8
0
  6
Continuous
 62
     7
370
    25
100
AcDbLine
 10
76.5761743892
 20
-35.2328153286
 30
0.0
 11
78.9404391463
 21
-36.6371335814
 31
0.0
  0
LINE
  5
1F1
330
1F
100
AcDbEntity
  8
0
  6
Continuous
 62
     7
370
    25
100
AcDbLine
 10
77.3216612437
 20
-33.1780606842
 30
0.0
 11
76.5761743892
 21
-35.2328153286
 31
0.0
  0
LINE
  5
1F2
330
1F
100
AcDbEntity
  8
0
  6
Continuous
 62
     7
370
    25
100
AcDbLine
 10
86.442494699
 20
-36.9688798981
 30
0.0
 11
85.8886115445
 21
-38.4955251733
 31
0.0
  0
LINE
  5
1F3
330
1F
100
AcDbEntity
  8
0
  6
Continuous
 62
     7
370
    25
100
AcDbLine
 10
75.8236816677
 20
-34.5537014897
 30
0.0
 11
76.0479603164
 21
-35.3121207411
 31
0.0
  0
LINE
  5
1F4
330
1F
100
AcDbEntity
  8
0
  6
Continuous
 62
     7
370
    25
100
AcDbLine
 10
76.4536656629
 20
-32.8173026086
 30
0.0
 11
75.8236816677
 21
-34.5537014897
 31
0.0
  0
LINE
  5
1F5
330
1F
100
AcDbEntity
  8
0
  6
Continuous
 62
     7
370
    25
100
AcDbLine
 10
85.8886115445
 20
-38.4955251733
 30
0.0
 11
85.6235156948
 21
-38.5353263388
 31
0.0
  0
LINE
  5
1F6
330
1F
100
AcDbEntity
  8
0
  6
Continuous
 62
     7
370
    25
100
AcDbLine
 10
15.6830117749
 20
-16.5798174302
 30
0.0
 11
14.436803559
 21
-20.0146896942
 31
0.0
  0
LINE
  5
1F7
330
1F
100
AcDbEntity
  8
0
  6
Continuous
 62
     7
370
    25
100
AcDbLine
 10
9.0969407853
 20
-18.1614010908
 30
0.0
 11
11.61490446
 21
-19.5069077245
 31
0.0
  0
LINE
  5
1F8
330
1F
100
AcDbEntity
  8
0
  6
Continuous
 62
     7
370
    25
100
AcDbLine
 10
10.3491926168
 20
-14.7098710586
 30
0.0
 11
9.0969407853
 21
-18.1614010908
 31
0.0
  0
LINE
  5
1F9
330
1F
100
AcDbEntity
  8
0
  6
Continuous
 62
     7
370
    25
100
AcDbLine
 10
14.436803559
 20
-20.0146896942
 30
0.0
 11
15.195698197
 21
-20.5685425605
 31
0.0
  0
LINE
  5
1FA
330
1F
100
AcDbEntity
  8
0
  6
Continuous
 62
     7
370
    25
100
AcDbLine
 10
6.7223417707
 20
-13.4262040517
 30
0.0
 11
5.5788027119
 21
-16.578093556
 31
0.0
  0
LINE
  5
1FB
330
1F
100
AcDbEntity
  8
0
  6
Continuous
 62
     7
370
    25
100
AcDbLine
 10
17.387532063
 20
-17.1728441824
 30
0.0
 11
16.2585282593
 21
-20.2846707629
 31
0.0
  0
LINE
  5
1FC
330
1F
100
AcDbEntity
  8
0
  6
Continuous
 62
     7
370
    25
100
AcDbLine
 10
5.7245695197
 20
-16.6917703912
 30
0.0
 11
5.5788027119
 21
-16.578093556
 31
0.0
  0
LINE
  5
1FD
330
1F
100
AcDbEntity
  8
0
  6
Continuous
 62
     7
370
    25
100
AcDbLine
 10
66.9301667388
 20
-33.2523450239
 30
0.0
 11
67.9510389397
 21
-30.4385571164
 31
0.0
  0
LINE
  5
1FE
330
1F
100
AcDbEntity
  8
0
  6
Continuous
 62
     7
370
    25
100
AcDbLine
 10
-39.8492322795
 20
7.1500622263
 30
0.0
 11
-40.8701044805
 21
4.3362743188
 31
0.0
  0
LINE
  5
1FF
330
1F
100
AcDbEntity
  8
0
  6
Continuous
 62
     7
370
    25
100
AcDbLine
 10
-63.0672517811
 20
19.1829892831
 30
0.0
 11
-77.9839927656
 21
22.9997083664
 31
0.0
  0
LINE
  5
200
330
1F
100
AcDbEntity
  8
0
  6
Continuous
 62
     7
370
    25
100
AcDbLine
 10
-74.7655766334
 20
28.8776107656
 30
0.0
 11
-79.6957797094
 21
30.9267117212
 31
0.0
  0
LINE
  5
201
330
1F
100
AcDbEntity
  8
0
  6
Continuous
 62
     7
370
    25
100
AcDbLine
 10
-85.2421250544
 20
33.2318949705
 30
0.0
 11
-95.450958651
 21
37.4749109996
 31
0.0
  0
LINE
  5
202
330
1F
100
AcDbEntity
  8
0
  6
Continuous
 62
     7
370
    25
100
AcDbLine
 10
-74.7655766334
 20
28.8776107656
 30
0.0
 11
-47.2656569222
 21
21.8412568824
 31
0.0
  0
LINE
  5
203
330
1F
100
AcDbEntity
  8
0
  6
Continuous
 62
     7
370
    25
100
AcDbLine
 10
-47.2656569222
 20
21.8412568824
 30
0.0
 11
-67.9510389397
 21
30.4385571164
 31
0.0
  0
LINE
  5
204
330
1F
100
AcDbEntity
  8
0
  6
Continuous
 62
     7
370
    25
100
AcDbLine
 10
24.9324912949
 20
-3.3333431431
 30
0.0
 11
39.8492322795
 21
-7.1500622263
 31
0.0
  0
LINE
  5
205
330
1F
100
AcDbEntity
  8
0
  6
Continuous
 62
     7
370
    25
100
AcDbLine
 10
24.9324912949
 20
-3.3333431431
 30
0.0
 11
63.0672517811
 21
-19.1829892831
 31
0.0
  0
LINE
  5
206
330
1F
100
AcDbEntity
  8
0
  6
Continuous
 62
     7
370
    25
100
AcDbLine
 10
63.0672517811
 20
-19.1829892831
 30
0.0
 11
77.9839927656
 21
-22.9997083664
 31
0.0
  0
LINE
  5
207
330
1F
100
AcDbEntity
  8
0
  6
Continuous
 62
     7
370
    25
100
AcDbLine
 10
74.7655766334
 20
-28.8776107656
 30
0.0
 11
95.450958651
 21
-37.4749109996
 31
0.0
  0
LINE
  5
208
330
1F
100
AcDbEntity
  8
0
  6
Continuous
 62
     7
370
    25
100
AcDbLine
 10
74.7655766334
 20
-28.8776107656
 30
0.0
 11
47.2656569222
 21
-21.8412568824
 31
0.0
  0
LINE
  5
209
330
1F
100
AcDbEntity
  8
0
  6
Continuous
 62
     7
370
    25
100
AcDbLine
 10
47.2656569222
 20
-21.8412568824
 30
0.0
 11
67.9510389397
 21
-30.4385571164
 31
0.0
  0
LINE
  5
20A
330
1F
100
AcDbEntity
  8
0
  6
Continuous
 62
     7
370
    25
100
AcDbLine
 10
-24.9324912949
 20
3.3333431431
 30
0.0
 11
-39.8492322795
 21
7.1500622263
 31
0.0
  0
LINE
  5
20B
330
1F
100
AcDbEntity
  8
0
  6
Continuous
 62
     7
370
    25
100
AcDbLine
 10
-24.9324912949
 20
3.3333431431
 30
0.0
 11
-63.0672517811
 21
19.1829892831
 31
0.0
  0
LINE
  5
20C
330
1F
100
AcDbEntity
  8
0
  6
Continuous
 62
     7
370
    25
100
AcDbLine
 10
-64.088123982
 20
16.3692013755
 30
0.0
 11
-63.0672517811
 21
19.1829892831
 31
0.0
  0
LINE
  5
20D
330
1F
100
AcDbEntity
  8
0
  6
Continuous
 62
     7
370
    25
100
AcDbLine
 10
-64.088123982
 20
16.3692013755
 30
0.0
 11
-40.1188130185
 21
6.4070279634
 31
0.0
  0
LINE
  5
20E
330
1F
100
AcDbEntity
  8
0
  6
Continuous
 62
     7
370
    25
100
AcDbLine
 10
-79.0048649666
 20
20.1859204588
 30
0.0
 11
-77.9839927656
 21
22.9997083664
 31
0.0
  0
LINE
  5
20F
330
1F
100
AcDbEntity
  8
0
  6
Continuous
 62
     7
370
    25
100
AcDbLine
 10
-79.0048649666
 20
20.1859204588
 30
0.0
 11
-64.088123982
 21
16.3692013755
 31
0.0
  0
LINE
  5
210
330
1F
100
AcDbEntity
  8
0
  6
Continuous
 62
     7
370
    25
100
AcDbLine
 10
73.7447044324
 20
-31.6913986731
 30
0.0
 11
74.7655766334
 21
-28.8776107656
 31
0.0
  0
LINE
  5
211
330
1F
100
AcDbEntity
  8
0
  6
Continuous
 62
     7
370
    25
100
AcDbLine
 10
66.5139970978
 20
-29.841290885
 30
0.0
 11
73.7447044324
 21
-31.6913986731
 31
0.0
  0
LINE
  5
212
330
1F
100
AcDbEntity
  8
0
  6
Continuous
 62
     7
370
    25
100
AcDbLine
 10
95.450958651
 20
-37.4749109996
 30
0.0
 11
94.43008645
 21
-40.2886989071
 31
0.0
  0
LINE
  5
213
330
1F
100
AcDbEntity
  8
0
  6
Continuous
 62
     7
370
    25
100
AcDbLine
 10
73.7447044324
 20
-31.6913986731
 30
0.0
 11
94.43008645
 21
-40.2886989071
 31
0.0
  0
LINE
  5
214
330
1F
100
AcDbEntity
  8
0
  6
Continuous
 62
     7
370
    25
100
AcDbLine
 10
-68.9719111407
 20
27.6247692089
 30
0.0
 11
-67.9510389397
 21
30.4385571164
 31
0.0
  0
LINE
  5
215
330
1F
100
AcDbEntity
  8
0
  6
Continuous
 62
     7
370
    25
100
AcDbLine
 10
-68.9719111407
 20
27.6247692089
 30
0.0
 11
-67.5348692988
 21
27.0275029774
 31
0.0
  0
LINE
  5
216
330
1F
100
AcDbEntity
  8
0
  6
Continuous
 62
     7
370
    25
100
AcDbLine
 10
39.8492322795
 20
-7.1500622263
 30
0.0
 11
39.0979408175
 21
-9.2208158709
 31
0.0
  0
ARC
  5
217
330
1F
100
AcDbEntity
  8
0
  6
Continuous
 62
     7
370
    25
100
AcDbCircle
 10
-179.3807479444
 20
-588.4149945633
 30
0.0
 40
664.3334524233708
100
AcDbArc
 50
65.4475625494
 51
67.7544655072
  0
ARC
  5
218
330
1F
100
AcDbEntity
  8
0
  6
Continuous
 62
     7
370
    25
100
AcDbCircle
 10
-340.9303382015
 20
-901.7770180653
 30
0.0
 40
1014.542179085808
100
AcDbArc
 50
70.4324918787
 51
74.1585066
  0
ARC
  5
219
330
1F
100
AcDbEntity
  8
0
  6
Continuous
 62
     7
370
    25
100
AcDbCircle
 10
-539.7489950084
 20
-1486.0635844242
 30
0.0
 40
1631.694232872014
100
AcDbArc
 50
69.5634263883
 51
70.515046409
  0
ARC
  5
21A
330
1F
100
AcDbEntity
  8
0
  6
Continuous
 62
     7
370
    25
100
AcDbCircle
 10
-419.0132851826
 20
-1169.2961135883
 30
0.0
 40
1292.700219532044
100
AcDbArc
 50
67.6707507974
 51
69.4096451999
  0
ARC
  5
21B
330
1F
100
AcDbEntity
  8
0
  6
Continuous
 62
     7
370
    25
100
AcDbCircle
 10
-163.1519981452
 20
-545.4921278447
 30
0.0
 40
669.9207067285691
100
AcDbArc
 50
65.7732143788
 51
67.5367646265
  0
ARC
  5
21C
330
1F
100
AcDbEntity
  8
0
  6
Continuous
 62
     7
370
    25
100
AcDbCircle
 10
-334.5955943662
 20
-889.1415272532
 30
0.0
 40
1051.993537669657
100
AcDbArc
 50
70.5088069911
 51
73.9557704944
  0
ARC
  5
21D
330
1F
100
AcDbEntity
  8
0
  6
Continuous
 62
     7
370
    25
100
AcDbCircle
 10
-457.1268401459
 20
-1262.2391866388
 30
0.0
 40
1444.611176660469
100
AcDbArc
 50
67.623734734
 51
70.6269545707
  0
ARC
  5
21E
330
1F
100
AcDbEntity
  8
0
  6
Continuous
 62
     7
370
    25
100
AcDbCircle
 10
53.784149817
 20
99.7169828813
 30
0.0
 40
15.09836160759475
100
AcDbArc
 50
238.5979128068
 51
261.5194662994
  0
ARC
  5
21F
330
1F
100
AcDbEntity
  8
0
  6
Continuous
 62
     7
370
    25
100
AcDbCircle
 10
60.5123813345
 20
120.4753408953
 30
0.0
 40
36.94101971668941
100
AcDbArc
 50
244.1946411737
 51
250.5624047552
  0
ARC
  5
220
330
1F
100
AcDbEntity
  8
0
  6
Continuous
 62
     7
370
    25
100
AcDbCircle
 10
38.3561802575
 20
62.3537819863
 30
0.0
 40
25.88527888335031
100
AcDbArc
 50
72.8045296935
 51
75.2430569691
  0
ARC
  5
221
330
1F
100
AcDbEntity
  8
0
  6
Continuous
 62
     7
370
    25
100
AcDbCircle
 10
44.5824731503
 20
67.8016999072
 30
0.0
 40
18.6264786626666
100
AcDbArc
 50
62.9836891805
 51
67.7047866294
  0
ARC
  5
222
330
1F
100
AcDbEntity
  8
0
  6
Continuous
 62
     7
370
    25
100
AcDbCircle
 10
66.0994738128
 20
132.9207771087
 30
0.0
 40
50.54896085102794
100
AcDbArc
 50
249.2848073638
 51
254.4227343985
  0
ARC
  5
223
330
1F
100
AcDbEntity
  8
0
  6
Continuous
 62
     7
370
    25
100
AcDbCircle
 10
64.3980201445
 20
128.2311305961
 30
0.0
 40
50.5489608510288
100
AcDbArc
 50
249.2848073638
 51
254.4227343985
  0
ARC
  5
224
330
1F
100
AcDbEntity
  8
0
  6
Continuous
 62
     7
370
    25
100
AcDbCircle
 10
58.8109276662
 20
115.7856943827
 30
0.0
 40
36.94101971668509
100
AcDbArc
 50
244.1946411737
 51
250.5624047552
  0
ARC
  5
225
330
1F
100
AcDbEntity
  8
0
  6
Continuous
 62
     7
370
    25
100
AcDbCircle
 10
51.7781298445
 20
82.4343921124
 30
0.0
 40
3.048757228539823
100
AcDbArc
 50
251.7569806856
 51
268.3617184132
  0
ARC
  5
226
330
1F
100
AcDbEntity
  8
0
  6
Continuous
 62
     7
370
    25
100
AcDbCircle
 10
43.2803320897
 20
83.7793248796
 30
0.0
 40
1.366560003294953
100
AcDbArc
 50
227.3446269782
 51
246.2491701572
  0
ARC
  5
227
330
1F
100
AcDbEntity
  8
0
  6
Continuous
 62
     7
370
    25
100
AcDbCircle
 10
26.2078664527
 20
120.7617096144
 30
0.0
 40
15.10735216644125
100
AcDbArc
 50
238.6048256069
 51
261.5125534993
  0
ARC
  5
228
330
1F
100
AcDbEntity
  8
0
  6
Continuous
 62
     7
370
    25
100
AcDbCircle
 10
9.6112574575
 20
72.7238024525
 30
0.0
 40
36.34655853050121
100
AcDbArc
 50
64.1171925951
 51
70.5562423902
  0
ARC
  5
229
330
1F
100
AcDbEntity
  8
0
  6
Continuous
 62
     7
370
    25
100
AcDbCircle
 10
38.6889455692
 20
154.4670403689
 30
0.0
 40
51.08615047804346
100
AcDbArc
 50
249.2692810267
 51
254.3702742219
  0
ARC
  5
22A
330
1F
100
AcDbEntity
  8
0
  6
Continuous
 62
     7
370
    25
100
AcDbCircle
 10
32.7047504163
 20
140.9621615728
 30
0.0
 40
36.34655853051442
100
AcDbArc
 50
244.1171925951
 51
250.5562423902
  0
ARC
  5
22B
330
1F
100
AcDbEntity
  8
0
  6
Continuous
 62
     7
370
    25
100
AcDbCircle
 10
3.6270623046
 20
59.2189236565
 30
0.0
 40
51.08615047806056
100
AcDbArc
 50
69.2692810267
 51
74.3702742219
  0
ARC
  5
22C
330
1F
100
AcDbEntity
  8
0
  6
Continuous
 62
     7
370
    25
100
AcDbCircle
 10
36.9874919009
 20
149.7773938563
 30
0.0
 40
51.08615047804427
100
AcDbArc
 50
249.2692810267
 51
254.3702742219
  0
ARC
  5
22D
330
1F
100
AcDbEntity
  8
0
  6
Continuous
 62
     7
370
    25
100
AcDbCircle
 10
31.003296748
 20
136.2725150603
 30
0.0
 40
36.34655853051191
100
AcDbArc
 50
244.1171925951
 51
250.5562423902
  0
ARC
  5
22E
330
1F
100
AcDbEntity
  8
0
  6
Continuous
 62
     7
370
    25
100
AcDbCircle
 10
24.2136373394
 20
103.5827856823
 30
0.0
 40
3.161449712785132
100
AcDbArc
 50
251.7557595085
 51
268.1496199413
  0
ARC
  5
22F
330
1F
100
AcDbEntity
  8
0
  6
Continuous
 62
     7
370
    25
100
AcDbCircle
 10
15.6615600633
 20
104.7620385168
 30
0.0
 40
1.300645157186056
100
AcDbArc
 50
227.026167346
 51
246.2084647796
  0
ARC
  5
230
330
1F
100
AcDbEntity
  8
0
  6
Continuous
 62
     7
370
    25
100
AcDbCircle
 10
-41.6818669829
 20
144.7556307596
 30
0.0
 40
18.77434315544806
100
AcDbArc
 50
241.2822806116
 51
259.5241714767
  0
ARC
  5
231
330
1F
100
AcDbEntity
  8
0
  6
Continuous
 62
     7
370
    25
100
AcDbCircle
 10
-36.9208877847
 20
154.2976411972
 30
0.0
 40
29.44311255202471
100
AcDbArc
 50
249.5848785876
 51
257.0276666245
  0
ARC
  5
232
330
1F
100
AcDbEntity
  8
0
  6
Continuous
 62
     7
370
    25
100
AcDbCircle
 10
-28.6881648019
 20
180.5887197778
 30
0.0
 40
56.97316860683313
100
AcDbArc
 50
246.3130923307
 51
251.048490857
  0
ARC
  5
233
330
1F
100
AcDbEntity
  8
0
  6
Continuous
 62
     7
370
    25
100
AcDbCircle
 10
-55.5966331952
 20
113.1515554599
 30
0.0
 40
16.21574294608269
100
AcDbArc
 50
72.2174675504
 51
78.2730713483
  0
ARC
  5
234
330
1F
100
AcDbEntity
  8
0
  6
Continuous
 62
     7
370
    25
100
AcDbCircle
 10
-30.3896184702
 20
175.8990732652
 30
0.0
 40
56.97316860683283
100
AcDbArc
 50
246.3130923307
 51
251.048490857
  0
ARC
  5
235
330
1F
100
AcDbEntity
  8
0
  6
Continuous
 62
     7
370
    25
100
AcDbCircle
 10
-38.622341453
 20
149.6079946847
 30
0.0
 40
29.44311255202464
100
AcDbArc
 50
249.5848785876
 51
257.0276666245
  0
ARC
  5
236
330
1F
100
AcDbEntity
  8
0
  6
Continuous
 62
     7
370
    25
100
AcDbCircle
 10
-51.9710193688
 20
127.322292986
 30
0.0
 40
3.826738150670602
100
AcDbArc
 50
232.5374355214
 51
250.0303538896
  0
ARC
  5
237
330
1F
100
AcDbEntity
  8
0
  6
Continuous
 62
     7
370
    25
100
AcDbCircle
 10
-65.2108597774
 20
79.6343515467
 30
0.0
 40
63.20652939402432
100
AcDbArc
 50
246.9438643237
 51
251.3560734835
  0
ARC
  5
238
330
1F
100
AcDbEntity
  8
0
  6
Continuous
 62
     7
370
    25
100
AcDbCircle
 10
-78.058711669
 20
39.3323035583
 30
0.0
 40
20.92417292098688
100
AcDbArc
 50
249.4105755697
 51
258.8374677605
  0
ARC
  5
239
330
1F
100
AcDbEntity
  8
0
  6
Continuous
 62
     7
370
    25
100
AcDbCircle
 10
-88.0742625227
 20
26.7781428641
 30
0.0
 40
5.628422958932399
100
AcDbArc
 50
234.5513855472
 51
250.375312109
  0
ARC
  5
23A
330
1F
100
AcDbEntity
  8
0
  6
Continuous
 62
     7
370
    25
100
AcDbCircle
 10
122.7940858147
 20
79.067197375
 30
0.0
 40
15.13528660418643
100
AcDbArc
 50
238.6262507963
 51
261.49112831
  0
ARC
  5
23B
330
1F
100
AcDbEntity
  8
0
  6
Continuous
 62
     7
370
    25
100
AcDbCircle
 10
113.8638899759
 20
47.779485876
 30
0.0
 40
17.90519063416147
100
AcDbArc
 50
62.5928939511
 51
67.7417480148
  0
ARC
  5
23C
330
1F
100
AcDbEntity
  8
0
  6
Continuous
 62
     7
370
    25
100
AcDbCircle
 10
135.9195195062
 20
114.7109995345
 30
0.0
 40
53.1566653268727
100
AcDbArc
 50
249.2054995819
 51
254.17009025
  0
ARC
  5
23D
330
1F
100
AcDbEntity
  8
0
  6
Continuous
 62
     7
370
    25
100
AcDbCircle
 10
128.3779798382
 20
97.0787883804
 30
0.0
 40
34.00483465916706
100
AcDbArc
 50
243.7972451552
 51
250.5376298078
  0
ARC
  5
23E
330
1F
100
AcDbEntity
  8
0
  6
Continuous
 62
     7
370
    25
100
AcDbCircle
 10
106.7975489776
 20
39.7816986417
 30
0.0
 40
27.8521222821446
100
AcDbArc
 50
72.8599599592
 51
74.9073671045
  0
ARC
  5
23F
330
1F
100
AcDbEntity
  8
0
  6
Continuous
 62
     7
370
    25
100
AcDbCircle
 10
134.2180658379
 20
110.0213530219
 30
0.0
 40
53.15666532688579
100
AcDbArc
 50
249.2054995819
 51
254.17009025
  0
ARC
  5
240
330
1F
100
AcDbEntity
  8
0
  6
Continuous
 62
     7
370
    25
100
AcDbCircle
 10
126.6765261699
 20
92.3891418679
 30
0.0
 40
34.00483465917083
100
AcDbArc
 50
243.7972451552
 51
250.5376298078
  0
ARC
  5
241
330
1F
100
AcDbEntity
  8
0
  6
Continuous
 62
     7
370
    25
100
AcDbCircle
 10
120.7957723439
 20
62.0054280012
 30
0.0
 40
3.30550347591053
100
AcDbArc
 50
250.9679438752
 51
268.1325431801
  0
ARC
  5
242
330
1F
100
AcDbEntity
  8
0
  6
Continuous
 62
     7
370
    25
100
AcDbCircle
 10
112.0926615825
 20
62.8483589752
 30
0.0
 40
1.061067529070716
100
AcDbArc
 50
225.6894222945
 51
246.0377715856
  0
ARC
  5
243
330
1F
100
AcDbEntity
  8
0
  6
Continuous
 62
     7
370
    25
100
AcDbCircle
 10
103.0723883115
 20
24.7797803473
 30
0.0
 40
65.98778892364429
100
AcDbArc
 50
248.5491314101
 51
252.8339814917
  0
ARC
  5
244
330
1F
100
AcDbEntity
  8
0
  6
Continuous
 62
     7
370
    25
100
AcDbCircle
 10
84.2129570025
 20
-21.3077027518
 30
0.0
 40
16.21082644731288
100
AcDbArc
 50
239.7565291567
 51
251.0194779141
  0
ARC
  5
245
330
1F
100
AcDbEntity
  8
0
  6
Continuous
 62
     7
370
    25
100
AcDbCircle
 10
86.0889827054
 20
-31.4657999556
 30
0.0
 40
7.244877866260334
100
AcDbArc
 50
249.8785032757
 51
264.2186150792
  0
ARC
  5
246
330
1F
100
AcDbEntity
  8
0
  6
Continuous
 62
     7
370
    25
100
AcDbCircle
 10
30.5890330253
 20
35.9670066502
 30
0.0
 40
58.62911163287746
100
AcDbArc
 50
246.473542434
 51
251.1174165877
  0
ARC
  5
247
330
1F
100
AcDbEntity
  8
0
  6
Continuous
 62
     7
370
    25
100
AcDbCircle
 10
21.158593753
 20
6.1133957626
 30
0.0
 40
27.34011624134017
100
AcDbArc
 50
249.5693897471
 51
257.4025038815
  0
ARC
  5
248
330
1F
100
AcDbEntity
  8
0
  6
Continuous
 62
     7
370
    25
100
AcDbCircle
 10
8.6640294473
 20
-13.7406720485
 30
0.0
 40
4.309368120636335
100
AcDbArc
 50
233.2413002164
 51
249.9400720391
  0
ARC
  5
249
330
1F
100
AcDbEntity
  8
0
  6
Continuous
 62
     7
370
    25
100
AcDbCircle
 10
84.6304727792
 20
-26.121593899
 30
0.0
 40
15.1260553932876
100
AcDbArc
 50
238.6191795646
 51
261.4981995416
  0
ARC
  5
24A
330
1F
100
AcDbEntity
  8
0
  6
Continuous
 62
     7
370
    25
100
AcDbCircle
 10
-81.8953718599
 20
33.6602396623
 30
0.0
 40
15.12628463172591
100
AcDbArc
 50
238.619355271
 51
261.4980238352
  0
ARC
  5
24B
330
1F
100
AcDbEntity
  8
0
  6
Continuous
 62
     7
370
    25
100
AcDbCircle
 10
14.8711223546
 20
-6.5124660479
 30
0.0
 40
14.15662072260888
100
AcDbArc
 50
239.2679335467
 51
255.3173245825
  0
ARC
  5
24C
330
1F
100
AcDbEntity
  8
0
  6
Continuous
 62
     7
370
    25
100
AcDbCircle
 10
13.764878409
 20
-14.778954351
 30
0.0
 40
5.968385406239912
100
AcDbArc
 50
245.4269603462
 51
265.3112258444
  0
ARC
  5
24D
330
1F
100
AcDbEntity
  8
0
  6
Continuous
 62
     7
370
    25
100
AcDbCircle
 10
481.8300898909
 20
1330.0120294107
 30
0.0
 40
1425.002351167968
100
AcDbArc
 50
248.4811968364
 51
253.0727417922
  0
ARC
  5
24E
330
1F
100
AcDbEntity
  8
0
  6
Continuous
 62
     7
370
    25
100
AcDbCircle
 10
482.8509620919
 20
1332.8258173182
 30
0.0
 40
1425.002351167958
100
AcDbArc
 50
248.4811968364
 51
253.0727417922
  0
ARC
  5
24F
330
1F
100
AcDbEntity
  8
0
  6
Continuous
 62
     7
370
    25
100
AcDbCircle
 10
-399.9684479335
 20
-1077.3428339804
 30
0.0
 40
1156.466674978253
100
AcDbArc
 50
70.6036105158
 51
73.3157991987
  0
ARC
  5
250
330
1F
100
AcDbEntity
  8
0
  6
Continuous
 62
     7
370
    25
100
AcDbCircle
 10
-554.4516445071
 20
-1528.2121808351
 30
0.0
 40
1633.055778290761
100
AcDbArc
 50
69.5832762815
 51
70.5341028247
  0
ARC
  5
251
330
1F
100
AcDbEntity
  8
0
  6
Continuous
 62
     7
370
    25
100
AcDbCircle
 10
-496.358387069
 20
-1373.8912468754
 30
0.0
 40
1468.162142565802
100
AcDbArc
 50
68.5786493749
 51
69.3729036846
  0
MTEXT
  5
253
330
1F
100
AcDbEntity
  8
0
  6
Continuous
 62
     7
100
AcDbMText
 10
-104.4455461283
 20
-42.1009987606
 30
0.0
 40
4.83362
 41
0.0
 71
     1
 72
     1
  1
Produit d'ducation SOLIDWORKS  A titre ducatif uniquement.
  7
SLDTEXTSTYLE0
 73
     1
 44
1.0
  0
ENDSEC
  0
SECTION
  2
OBJECTS
  0
DICTIONARY
  5
C
330
0
100
AcDbDictionary
281
     1
  3
ACAD_GROUP
350
D
  3
ACAD_LAYOUT
350
1A
  3
ACAD_MLINESTYLE
350
17
  3
ACAD_PLOTSETTINGS
350
19
  3
ACAD_PLOTSTYLENAME
350
E
  3
ACAD_SCALELIST
350
47
  3
DWGPROPS
350
254
  0
DICTIONARY
  5
D
102
{ACAD_REACTORS
330
C
102
}
330
C
100
AcDbDictionary
281
     1
  0
DICTIONARY
  5
1A
102
{ACAD_REACTORS
330
C
102
}
330
C
100
AcDbDictionary
281
     1
  3
Layout1
350
1E
  3
Layout2
350
26
  3
Model
350
22
  0
DICTIONARY
  5
17
102
{ACAD_REACTORS
330
C
102
}
330
C
100
AcDbDictionary
281
     1
  3
Standard
350
18
  0
DICTIONARY
  5
19
102
{ACAD_REACTORS
330
C
102
}
330
C
100
AcDbDictionary
281
     1
  0
ACDBDICTIONARYWDFLT
  5
E
102
{ACAD_REACTORS
330
C
102
}
330
C
100
AcDbDictionary
281
     1
  3
Normal
350
F
100
AcDbDictionaryWithDefault
340
F
  0
DICTIONARY
  5
47
102
{ACAD_REACTORS
330
C
102
}
330
C
100
AcDbDictionary
281
     1
  3
A0
350
48
  3
A1
350
49
  3
A2
350
4A
  3
A3
350
4B
  3
A4
350
4C
  3
A5
350
4D
  3
A6
350
4E
  3
A7
350
4F
  3
A8
350
50
  3
A9
350
51
  3
B0
350
52
  3
B1
350
53
  3
B2
350
54
  3
B3
350
55
  3
B4
350
56
  3
B5
350
57
  3
B6
350
58
  0
XRECORD
  5
254
102
{ACAD_REACTORS
330
C
102
}
330
C
100
AcDbXrecord
280
     1
  1
DWGPROPS COOKIE
  2

  3

  4

  6

  7

  8
louis
  9

300
=
301
=
302
=
303
=
304
=
305
=
306
=
307
=
308
=
309
=
 40
0.0
 41
2460034.854848449
 42
2460034.854925081
  1

 90
        0
  0
LAYOUT
  5
1E
102
{ACAD_REACTORS
330
1A
102
}
330
1A
100
AcDbPlotSettings
  1

  2
none_device
  4

  6

 40
0.0
 41
0.0
 42
0.0
 43
0.0
 44
0.0
 45
0.0
 46
0.0
 47
0.0
 48
0.0
 49
0.0
140
0.0
141
0.0
142
1.0
143
1.0
 70
   688
 72
     1
 73
     0
 74
     5
  7

 75
    16
147
1.0
148
0.0
149
0.0
100
AcDbLayout
  1
Layout1
 70
     1
 71
     1
 10
0.0
 20
0.0
 11
420.0
 21
297.0
 12
0.0
 22
0.0
 32
0.0
 14
1.0000000000E+20
 24
1.0000000000E+20
 34
1.0000000000E+20
 15
-1.0000000000E+20
 25
-1.0000000000E+20
 35
-1.0000000000E+20
146
0.0
 13
0.0
 23
0.0
 33
0.0
 16
1.0
 26
0.0
 36
0.0
 17
0.0
 27
1.0
 37
0.0
 76
     0
330
1B
  0
LAYOUT
  5
26
102
{ACAD_REACTORS
330
1A
102
}
330
1A
100
AcDbPlotSettings
  1

  2
none_device
  4

  6

 40
0.0
 41
0.0
 42
0.0
 43
0.0
 44
0.0
 45
0.0
 46
0.0
 47
0.0
 48
0.0
 49
0.0
140
0.0
141
0.0
142
1.0
143
1.0
 70
   688
 72
     1
 73
     0
 74
     5
  7

 75
    16
147
1.0
148
0.0
149
0.0
100
AcDbLayout
  1
Layout2
 70
     1
 71
     2
 10
0.0
 20
0.0
 11
0.0
 21
0.0
 12
0.0
 22
0.0
 32
0.0
 14
0.0
 24
0.0
 34
0.0
 15
0.0
 25
0.0
 35
0.0
146
0.0
 13
0.0
 23
0.0
 33
0.0
 16
1.0
 26
0.0
 36
0.0
 17
0.0
 27
1.0
 37
0.0
 76
     0
330
23
  0
LAYOUT
  5
22
102
{ACAD_REACTORS
330
1A
102
}
330
1A
100
AcDbPlotSettings
  1

  2
none_device
  4
ANSI_A_(11.00_x_8.50_Inches)
  6

 40
6.35
 41
19.05
 42
6.35000508
 43
19.05000254
 44
279.4
 45
215.9
 46
115.3300579012
 47
37.9513391612
 48
0.0
 49
0.0
140
0.0
141
0.0
142
0.0453399282
143
1.0
 70
  1696
 72
     0
 73
     0
 74
     0
  7

 75
     0
147
0.0179189148
148
-1300.4909072572
149
0.0
100
AcDbLayout
  1
Model
 70
     1
 71
     0
 10
0.0
 20
0.0
 11
420.0
 21
297.0
 12
0.0
 22
0.0
 32
0.0
 14
-104.4455461283
 24
-41.0814323689
 34
0.0
 15
135.7401011806
 25
129.5620638668
 35
0.0
146
0.0
 13
0.0
 23
0.0
 33
0.0
 16
1.0
 26
0.0
 36
0.0
 17
0.0
 27
1.0
 37
0.0
 76
     0
330
1F
331
29
  0
MLINESTYLE
  5
18
102
{ACAD_REACTORS
330
17
102
}
330
17
100
AcDbMlineStyle
  2
Standard
 70
     0
  3

 62
   256
 51
90.0
 52
90.0
 71
     2
 49
0.5
 62
   256
  6
BYLAYER
 49
-0.5
 62
   256
  6
BYLAYER
  0
ACDBPLACEHOLDER
  5
F
102
{ACAD_REACTORS
330
E
102
}
330
E
  0
SCALE
  5
48
102
{ACAD_REACTORS
330
47
102
}
330
47
100
AcDbScale
 70
     0
300
1:1
140
1.0
141
1.0
290
     1
  0
SCALE
  5
49
102
{ACAD_REACTORS
330
47
102
}
330
47
100
AcDbScale
 70
     0
300
1:2
140
1.0
141
2.0
290
     0
  0
SCALE
  5
4A
102
{ACAD_REACTORS
330
47
102
}
330
47
100
AcDbScale
 70
     0
300
1:4
140
1.0
141
4.0
290
     0
  0
SCALE
  5
4B
102
{ACAD_REACTORS
330
47
102
}
330
47
100
AcDbScale
 70
     0
300
1:5
140
1.0
141
5.0
290
     0
  0
SCALE
  5
4C
102
{ACAD_REACTORS
330
47
102
}
330
47
100
AcDbScale
 70
     0
300
1:8
140
1.0
141
8.0
290
     0
  0
SCALE
  5
4D
102
{ACAD_REACTORS
330
47
102
}
330
47
100
AcDbScale
 70
     0
300
1:10
140
1.0
141
10.0
290
     0
  0
SCALE
  5
4E
102
{ACAD_REACTORS
330
47
102
}
330
47
100
AcDbScale
 70
     0
300
1:16
140
1.0
141
16.0
290
     0
  0
SCALE
  5
4F
102
{ACAD_REACTORS
330
47
102
}
330
47
100
AcDbScale
 70
     0
300
1:20
140
1.0
141
20.0
290
     0
  0
SCALE
  5
50
102
{ACAD_REACTORS
330
47
102
}
330
47
100
AcDbScale
 70
     0
300
1:30
140
1.0
141
30.0
290
     0
  0
SCALE
  5
51
102
{ACAD_REACTORS
330
47
102
}
330
47
100
AcDbScale
 70
     0
300
1:40
140
1.0
141
40.0
290
     0
  0
SCALE
  5
52
102
{ACAD_REACTORS
330
47
102
}
330
47
100
AcDbScale
 70
     0
300
1:50
140
1.0
141
50.0
290
     0
  0
SCALE
  5
53
102
{ACAD_REACTORS
330
47
102
}
330
47
100
AcDbScale
 70
     0
300
1:100
140
1.0
141
100.0
290
     0
  0
SCALE
  5
54
102
{ACAD_REACTORS
330
47
102
}
330
47
100
AcDbScale
 70
     0
300
2:1
140
2.0
141
1.0
290
     0
  0
SCALE
  5
55
102
{ACAD_REACTORS
330
47
102
}
330
47
100
AcDbScale
 70
     0
300
4:1
140
4.0
141
1.0
290
     0
  0
SCALE
  5
56
102
{ACAD_REACTORS
330
47
102
}
330
47
100
AcDbScale
 70
     0
300
8:1
140
8.0
141
1.0
290
     0
  0
SCALE
  5
57
102
{ACAD_REACTORS
330
47
102
}
330
47
100
AcDbScale
 70
     0
300
10:1
140
10.0
141
1.0
290
     0
  0
SCALE
  5
58
102
{ACAD_REACTORS
330
47
102
}
330
47
100
AcDbScale
 70
     0
300
100:1
140
100.0
141
1.0
290
     0
  0
ENDSEC
  0
EOF
